<svg width="26" height="26" viewBox="0 0 26 26" fill="none" xmlns="http://www.w3.org/2000/svg">
<path d="M12.6331 24.2967C10.6186 24.2967 8.64939 23.6818 6.97442 22.5298C5.29945 21.3778 3.99397 19.7405 3.22307 17.8247C2.45217 15.909 2.25046 13.801 2.64347 11.7673C3.03647 9.73363 4.00653 7.86555 5.43097 6.39933C6.85541 4.9331 8.67026 3.9346 10.646 3.53007C12.6218 3.12554 14.6697 3.33316 16.5308 4.12667C18.392 4.92018 19.9827 6.26395 21.1019 7.98804C22.221 9.71214 22.8184 11.7391 22.8184 13.8127C22.8154 16.5923 21.7414 19.2571 19.8319 21.2226C17.9224 23.1881 15.3335 24.2937 12.6331 24.2967ZM12.6331 4.38399C10.8214 4.38399 9.0504 4.93697 7.54404 5.97301C6.03769 7.00905 4.86362 8.4816 4.17032 10.2045C3.47702 11.9273 3.29562 13.8231 3.64907 15.6521C4.00251 17.4811 4.87491 19.1611 6.15597 20.4798C7.43702 21.7984 9.06918 22.6964 10.8461 23.0602C12.6229 23.424 14.4647 23.2373 16.1385 22.5236C17.8122 21.81 19.2428 20.6015 20.2494 19.051C21.2559 17.5004 21.7931 15.6775 21.7931 13.8127C21.7904 11.3129 20.8244 8.91629 19.1072 7.14867C17.3899 5.38106 15.0616 4.38678 12.6331 4.38399Z" fill="#3C3C3C"/>
<path d="M15.1968 15.3959C15.1952 15.9551 14.9786 16.4911 14.5944 16.8865C14.2102 17.282 13.6896 17.5049 13.1462 17.5066V18.5725C13.1462 18.7125 13.0922 18.8467 12.9961 18.9457C12.8999 19.0446 12.7695 19.1002 12.6336 19.1002C12.4976 19.1002 12.3672 19.0446 12.2711 18.9457C12.1749 18.8467 12.1209 18.7125 12.1209 18.5725V17.5066H10.8393C10.7033 17.5066 10.5729 17.451 10.4768 17.352C10.3806 17.2531 10.3266 17.1189 10.3266 16.9789C10.3266 16.839 10.3806 16.7047 10.4768 16.6058C10.5729 16.5068 10.7033 16.4512 10.8393 16.4512H13.1462C13.4181 16.4512 13.6789 16.34 13.8712 16.1421C14.0635 15.9442 14.1715 15.6758 14.1715 15.3959C14.1715 15.116 14.0635 14.8475 13.8712 14.6496C13.6789 14.4517 13.4181 14.3405 13.1462 14.3405H12.1209C11.5771 14.3405 11.0555 14.1181 10.6709 13.7223C10.2864 13.3264 10.0703 12.7895 10.0703 12.2297C10.0703 11.6699 10.2864 11.1331 10.6709 10.7372C11.0555 10.3414 11.5771 10.119 12.1209 10.119V9.05308C12.1209 8.91313 12.1749 8.77891 12.2711 8.67995C12.3672 8.58099 12.4976 8.52539 12.6336 8.52539C12.7695 8.52539 12.8999 8.58099 12.9961 8.67995C13.0922 8.77891 13.1462 8.91313 13.1462 9.05308V10.119H14.4278C14.5638 10.119 14.6942 10.1746 14.7903 10.2736C14.8865 10.3725 14.9405 10.5067 14.9405 10.6467C14.9405 10.7866 14.8865 10.9209 14.7903 11.0198C14.6942 11.1188 14.5638 11.1744 14.4278 11.1744H12.1209C11.849 11.1744 11.5882 11.2856 11.3959 11.4835C11.2036 11.6814 11.0956 11.9498 11.0956 12.2297C11.0956 12.5096 11.2036 12.7781 11.3959 12.976C11.5882 13.1739 11.849 13.2851 12.1209 13.2851H13.1462C13.6896 13.2868 14.2102 13.5097 14.5944 13.9052C14.9786 14.3007 15.1952 14.8366 15.1968 15.3959Z" fill="#3C3C3C"/>
</svg>
