<svg width="106" height="56" viewBox="0 0 106 56" fill="none" xmlns="http://www.w3.org/2000/svg">
<g clip-path="url(#clip0_1_793)">
<path d="M56.605 8.84204C57.392 10.3015 57.4352 12.2296 57.1392 13.886C56.9612 14.8667 56.5841 15.8168 56.1255 16.7678C55.6594 17.7343 55.1399 18.6456 54.646 19.6272C53.6784 21.5503 52.9002 23.5813 53.4536 25.8821L53.4946 26.0549L53.6704 26.0842C53.7294 26.0941 53.798 26.1031 53.8618 26.0959C53.8965 26.0921 53.9464 26.0818 53.9966 26.052C54.0519 26.0191 54.0915 25.9723 54.1157 25.9211C54.1368 25.8765 54.1428 25.8353 54.145 25.8176C54.1461 25.8085 54.1456 25.8001 54.146 25.7952C54.2082 25.668 54.2558 25.5275 54.2944 25.4104C54.3384 25.2771 54.3762 25.1673 54.4253 25.0754C55.1333 23.7546 56.3467 22.733 57.7017 21.7815C59.0364 20.8442 60.5359 19.9593 61.6997 18.9504L61.9077 18.7708L61.7222 18.5667C59.8474 16.5033 60.2725 13.6843 62.0513 11.6682C62.0947 11.703 62.1483 11.7513 62.2085 11.8147C62.2875 11.8979 62.3618 11.9847 62.439 12.0706C62.442 12.0739 62.4456 12.0769 62.4487 12.0803C61.7328 12.9156 61.2276 13.9334 61.103 14.9749C60.9675 16.1079 61.2842 17.2611 62.2495 18.2034L62.4116 18.3606L62.5942 18.2288C63.2707 17.7433 64.0704 17.1969 64.7036 16.5344C65.2831 15.9282 65.7425 15.2053 65.8511 14.3127L66.4019 14.3518L66.1948 15.3323L65.4907 16.6018L65.1167 16.9475C63.1095 18.7999 60.8216 20.282 58.5894 21.9182L58.4849 21.9954L58.48 22.1243C58.4765 22.2123 58.514 22.2772 58.5405 22.3118C58.5669 22.3462 58.5959 22.3698 58.6147 22.3831C58.6527 22.4097 58.6945 22.4292 58.7271 22.4426C58.7957 22.4709 58.8848 22.4974 58.979 22.5227C59.1706 22.5742 59.4239 22.6289 59.6782 22.679C60.1863 22.7789 60.7247 22.8665 60.8384 22.8811H60.8423C62.6705 23.0897 64.7 22.8832 66.4038 22.1174L66.4028 22.1165C66.8851 21.9016 67.3256 21.6075 67.7417 21.3352L68.0913 21.844C65.3224 23.6837 62.1316 23.7875 58.8735 23.1038C58.6615 23.0594 58.4951 23.0017 58.3452 22.9465C58.2032 22.8942 58.0477 22.8327 57.8931 22.8049C57.7234 22.7745 57.5512 22.7817 57.3579 22.8538C57.2195 22.9054 57.076 22.9882 56.9185 23.1028L56.7563 23.2278C55.7345 24.0533 55.0804 24.927 54.7358 25.8284C54.3907 26.7315 54.3627 27.6457 54.5679 28.5393C54.95 30.2034 56.1377 31.7976 57.5815 33.1731L57.8735 33.4446C58.0405 33.5972 58.5374 33.9887 58.9917 34.3313C59.1914 34.4819 59.3878 34.6244 59.5483 34.7385L58.7573 35.1848C55.9407 33.3614 54.2464 30.3208 53.2339 27.1311L52.9468 26.2239L52.7173 27.1477C52.3427 28.6565 51.374 30.6417 50.2671 32.2864C49.7147 33.1071 49.1337 33.8335 48.5845 34.3684C48.0688 34.8706 47.6127 35.1686 47.2563 35.2561L46.4019 34.7219C47.6224 33.8606 49.0304 32.6282 50.0532 31.2053C51.1654 29.658 51.8578 27.8378 51.2769 26.0227C50.8517 24.6898 49.619 23.5234 48.5747 22.7727L48.4663 22.6946L48.3394 22.7336C46.4243 23.3172 44.4086 23.6011 42.4087 23.4534H42.4077C42.1192 23.4309 41.7992 23.3527 41.4546 23.2717C41.1463 23.1993 40.8129 23.1254 40.5083 23.1125C40.2359 22.9692 39.9469 22.8592 39.6724 22.7571C39.3723 22.6455 39.0891 22.5411 38.8247 22.4026L38.8228 22.4016C38.7489 22.3634 38.4759 22.2048 38.2095 22.0413C38.0777 21.9604 37.9519 21.8809 37.8569 21.8176C37.844 21.809 37.8321 21.8 37.8208 21.7922C37.8529 21.7362 37.8985 21.6663 37.9565 21.5901C38.0286 21.4953 38.109 21.4005 38.1792 21.3206C40.8494 23.1797 44.2638 23.2577 47.2798 22.4211L47.8003 22.2766L47.3706 21.9485L40.9067 17.0061L40.5815 16.7581L40.4858 16.6292C39.9525 15.9149 39.5877 15.187 39.5103 14.3352L40.0718 14.262C40.0982 14.3716 40.1221 14.4842 40.147 14.6067C40.1769 14.7541 40.2105 14.9126 40.2622 15.0764L40.3208 15.2424C40.5758 15.8888 41.082 16.4384 41.6187 16.9114C42.1467 17.3768 42.7654 17.8171 43.2144 18.1819L43.3784 18.3147L43.5464 18.1868C44.6546 17.3446 44.9806 16.1808 44.8364 15.0266C44.7046 13.9721 44.1801 12.9221 43.5103 12.0891L43.9175 11.717C45.3454 13.4221 45.9999 15.6078 44.8784 17.5725L44.7593 17.7698C44.6699 17.9109 44.565 18.0277 44.4429 18.1711C44.3257 18.3087 44.1958 18.4683 44.0991 18.6682L43.9126 19.054H44.3413C44.3435 19.0543 44.3506 19.0562 44.3638 19.0627C44.3855 19.0737 44.4106 19.091 44.4507 19.1204L44.4556 19.1233C45.4824 19.8423 46.9148 20.7638 48.2524 21.7737C49.5107 22.7237 50.6372 23.7187 51.229 24.6438L51.3403 24.8284L51.9019 26.0149L52.1929 26.6311L52.4009 25.9817C53.0856 23.8423 52.3625 22.013 51.5405 20.1809C51.2102 19.4441 50.8469 18.745 50.4946 18.0647C50.1411 17.3821 49.7985 16.7188 49.5024 16.0413C48.9123 14.6906 48.5113 13.2961 48.5942 11.6418C48.6117 11.3159 48.6879 10.9694 48.769 10.6028C48.842 10.2731 48.9176 9.92217 48.938 9.59009C49.0719 9.34879 49.1771 9.09805 49.2671 8.8479L49.7974 9.13794C48.8999 11.0644 49.0417 12.8728 49.6001 14.595C50.1728 16.3611 51.2054 18.0907 51.9819 19.7385L51.9829 19.7405C51.996 19.7677 52.0434 19.8835 52.1167 20.0608C52.187 20.2309 52.2761 20.4451 52.3657 20.6526C52.4547 20.8586 52.5474 21.0635 52.6245 21.2141C52.6621 21.2874 52.7013 21.3591 52.7388 21.4124C52.7552 21.4357 52.7843 21.4748 52.8247 21.5071C52.8444 21.5228 52.8873 21.5533 52.9487 21.5667C53.0235 21.5828 53.1135 21.5696 53.187 21.509L53.2427 21.4631L53.2681 21.3948C53.6275 20.4142 54.114 19.4415 54.6147 18.4524C55.1129 17.4683 55.6254 16.4662 56.0239 15.4475C56.7991 13.466 57.1521 11.3844 56.1421 9.13696L56.605 8.84204ZM40.3667 23.6497C40.8386 23.9277 41.0234 24.2591 41.0503 24.6038C41.075 24.9204 40.9686 25.2852 40.7495 25.677C40.4761 25.4818 40.2471 25.315 40.0786 25.1125C39.8835 24.878 39.7739 24.5991 39.8423 24.1614L39.8413 24.1604C39.875 23.9508 39.947 23.8312 40.0278 23.762C40.099 23.7011 40.2049 23.6578 40.3667 23.6497ZM39.436 17.2024C39.6291 17.0716 39.89 17.0091 40.2339 17.0559L40.4614 17.0862L40.4751 17.2424C40.5123 17.682 40.3265 18.0352 40.0181 18.2864C39.7178 18.5307 39.3039 18.6724 38.8911 18.6809C38.8829 18.6384 38.8764 18.5731 38.8813 18.4836C38.8939 18.2568 38.9582 17.9942 38.9897 17.8899L38.9907 17.886C39.0855 17.5568 39.2416 17.3342 39.436 17.2024ZM65.7222 17.0627C66.1324 17.0158 66.4131 17.0753 66.6089 17.2073C66.8029 17.3381 66.9589 17.5704 67.0542 17.9661C67.1149 18.2196 67.1531 18.4039 67.1655 18.5383C67.1718 18.607 67.1683 18.6475 67.1655 18.6692C67.1516 18.6707 67.1308 18.6746 67.1001 18.6731C66.9884 18.6676 66.8171 18.6322 66.561 18.5588H66.562C66.139 18.4362 65.9072 18.2787 65.772 18.0823C65.6338 17.8815 65.5653 17.5955 65.5679 17.1467V17.0793L65.7222 17.0627ZM46.9595 8.13208C47.1779 8.15271 47.4103 8.20134 47.5083 8.22583V8.22485C47.8867 8.32282 48.1045 8.46946 48.2319 8.65063C48.3527 8.82243 48.4174 9.06289 48.4136 9.41431C48.3446 9.52418 48.3 9.56482 48.2583 9.58716C48.2044 9.61602 48.1164 9.63761 47.9106 9.64282H47.9087C47.5158 9.65498 47.2329 9.44966 47.0337 9.11743C46.8618 8.83084 46.7657 8.46542 46.7378 8.12524C46.7989 8.12297 46.8746 8.12408 46.9595 8.13208Z" fill="#EFEFEF" stroke="#EFEFEF" stroke-width="0.537793"/>
<mask id="path-2-inside-1_1_793" fill="white">
<path d="M65.7612 22.9636C65.1965 23.254 65.7343 23.0658 65.1965 23.3616C65.6859 23.3616 65.9763 23.5982 66.057 24.1037C66.2183 25.1363 65.5246 25.5235 64.8039 26.0506C64.1317 25.0395 64.0295 24.0016 65.1965 23.3616C64.6211 23.367 64.9545 23.254 64.3307 23.3024"/>
</mask>
<path d="M65.7612 22.9636C65.1965 23.254 65.7343 23.0658 65.1965 23.3616C65.6859 23.3616 65.9763 23.5982 66.057 24.1037C66.2183 25.1363 65.5246 25.5235 64.8039 26.0506C64.1317 25.0395 64.0295 24.0016 65.1965 23.3616C64.6211 23.367 64.9545 23.254 64.3307 23.3024" fill="#EFEFEF"/>
<path d="M66.057 24.1037L66.5883 24.0207L66.588 24.019L66.057 24.1037ZM64.8039 26.0506L64.3561 26.3483L64.6675 26.8166L65.1214 26.4846L64.8039 26.0506ZM65.7612 22.9636L65.5152 22.4854C65.3753 22.5573 65.2665 22.6179 65.1894 22.6752C65.1507 22.704 65.0833 22.7582 65.0274 22.8428C64.955 22.9525 64.9401 23.0551 64.9353 23.0922C64.9341 23.1015 64.9414 23.0142 64.9911 22.9236C65.032 22.8491 65.0796 22.8093 65.087 22.8031C65.0973 22.7945 65.0718 22.8164 64.9373 22.8904L65.1965 23.3616L65.4557 23.8328C65.5901 23.7589 65.6991 23.6934 65.7774 23.6279C65.8189 23.5931 65.8839 23.5325 65.9341 23.441C65.9612 23.3915 65.979 23.3424 65.9901 23.296C65.9993 23.2577 66.0032 23.2208 66.0022 23.229C65.9991 23.253 65.9863 23.3425 65.9249 23.4355C65.8801 23.5034 65.8327 23.5372 65.8313 23.5382C65.829 23.54 65.8647 23.5151 66.0071 23.4419L65.7612 22.9636ZM65.1965 23.3616V23.8994C65.3565 23.8994 65.4134 23.9373 65.4316 23.9528C65.4496 23.9681 65.4991 24.0203 65.5259 24.1885L66.057 24.1037L66.588 24.019C66.5342 23.6817 66.3981 23.3628 66.1284 23.1334C65.8589 22.9042 65.5259 22.8238 65.1965 22.8238V23.3616ZM66.057 24.1037L65.5256 24.1868C65.5818 24.5461 65.4951 24.7461 65.3482 24.9222C65.1599 25.148 64.8891 25.322 64.4865 25.6165L64.8039 26.0506L65.1214 26.4846C65.4394 26.2521 65.8758 25.9689 66.1742 25.6112C66.514 25.2038 66.6935 24.694 66.5883 24.0207L66.057 24.1037ZM64.8039 26.0506L65.2518 25.7528C64.9463 25.2934 64.8237 24.903 64.8467 24.6087C64.8662 24.3576 64.9985 24.0835 65.4551 23.8331L65.1965 23.3616L64.9379 22.89C64.2275 23.2796 63.8274 23.8445 63.7743 24.5251C63.7247 25.1626 63.9893 25.7967 64.3561 26.3483L64.8039 26.0506ZM65.1965 23.3616L65.1915 22.8238C65.0615 22.825 65.0066 22.8191 64.9874 22.8162C64.9788 22.8149 64.9898 22.8179 64.9471 22.8042C64.7779 22.7495 64.6195 22.7406 64.2891 22.7663L64.3307 23.3024L64.3723 23.8386C64.5203 23.8271 64.5884 23.8273 64.6179 23.8289C64.6299 23.8296 64.6298 23.8303 64.6227 23.8289C64.6149 23.8273 64.6097 23.8255 64.6163 23.8276C64.6402 23.8353 64.7147 23.8626 64.825 23.8794C64.9246 23.8947 65.0438 23.9008 65.2015 23.8994L65.1965 23.3616Z" fill="#EFEFEF" mask="url(#path-2-inside-1_1_793)"/>
<mask id="path-4-inside-2_1_793" fill="white">
<path d="M56.6616 8.99191C56.6616 8.99191 57.0327 9.30383 57.2209 9.63189C57.194 8.78218 57.5006 8.30892 58.3288 8.0938C58.5439 8.04002 59.3129 7.88944 59.442 8.06691C59.4366 8.91662 59.0172 10.0729 57.9846 10.0406C57.5597 10.0299 57.4092 9.94919 57.2263 9.63189"/>
</mask>
<path d="M56.6616 8.99191C56.6616 8.99191 57.0327 9.30383 57.2209 9.63189C57.194 8.78218 57.5006 8.30892 58.3288 8.0938C58.5439 8.04002 59.3129 7.88944 59.442 8.06691C59.4366 8.91662 59.0172 10.0729 57.9846 10.0406C57.5597 10.0299 57.4092 9.94919 57.2263 9.63189" fill="#EFEFEF"/>
<path d="M57.2209 9.63189L56.7545 9.89953L57.7584 9.61488L57.2209 9.63189ZM58.3288 8.0938L58.1983 7.57204L58.1936 7.57328L58.3288 8.0938ZM59.442 8.06691L59.9798 8.07032L59.9809 7.89355L59.8769 7.7506L59.442 8.06691ZM57.9846 10.0406L58.0014 9.50307L57.9982 9.50299L57.9846 10.0406ZM56.6616 8.99191C56.3156 9.40359 56.3155 9.40354 56.3155 9.4035C56.3155 9.40349 56.3154 9.40345 56.3154 9.40342C56.3153 9.40337 56.3153 9.40332 56.3152 9.40328C56.3151 9.4032 56.315 9.40313 56.315 9.40308C56.3149 9.40299 56.3148 9.40296 56.3149 9.40301C56.315 9.4031 56.3154 9.40348 56.3162 9.40413C56.3177 9.40544 56.3205 9.40784 56.3245 9.41126C56.3323 9.41812 56.3446 9.429 56.3604 9.44335C56.3921 9.47222 56.4366 9.51417 56.4861 9.56479C56.5908 9.67187 56.6938 9.79383 56.7545 9.89953L57.2209 9.63189L57.6874 9.36424C57.5598 9.1419 57.3832 8.94387 57.2553 8.81297C57.1885 8.7446 57.1285 8.68807 57.0847 8.6482C57.0627 8.62818 57.0446 8.61213 57.0314 8.60065C57.0248 8.5949 57.0195 8.59028 57.0155 8.58686C57.0135 8.58515 57.0118 8.58373 57.0105 8.58263C57.0098 8.58208 57.0093 8.5816 57.0088 8.5812C57.0086 8.581 57.0084 8.58082 57.0082 8.58066C57.0081 8.58058 57.008 8.58051 57.0079 8.58044C57.0079 8.5804 57.0078 8.58035 57.0078 8.58034C57.0077 8.58029 57.0077 8.58024 56.6616 8.99191ZM57.2209 9.63189L57.7584 9.61488C57.7469 9.25016 57.8108 9.05269 57.8941 8.93422C57.9732 8.82171 58.125 8.70238 58.464 8.61432L58.3288 8.0938L58.1936 7.57328C57.7044 7.70034 57.2888 7.9252 57.0143 8.31552C56.744 8.69989 56.6681 9.1639 56.6834 9.6489L57.2209 9.63189ZM58.3288 8.0938L58.4592 8.61554C58.5477 8.59341 58.7663 8.54808 58.9681 8.52906C59.0712 8.51934 59.1452 8.51899 59.1867 8.52343C59.2075 8.52565 59.2 8.52711 59.176 8.51803C59.1555 8.51032 59.0754 8.47718 59.0071 8.38323L59.442 8.06691L59.8769 7.7506C59.7763 7.61227 59.6439 7.54502 59.5559 7.51178C59.4643 7.47718 59.3738 7.46171 59.301 7.45393C59.1553 7.43837 58.9994 7.44576 58.8672 7.45822C58.5984 7.48356 58.325 7.54041 58.1983 7.57207L58.3288 8.0938ZM59.442 8.06691L58.9042 8.06351C58.902 8.41634 58.8112 8.81782 58.6373 9.10793C58.4733 9.38142 58.2713 9.51151 58.0014 9.50308L57.9846 10.0406L57.9678 10.5781C58.7305 10.602 59.2545 10.1701 59.5597 9.66108C59.855 9.1687 59.9766 8.56719 59.9798 8.07032L59.442 8.06691ZM57.9846 10.0406L57.9982 9.50299C57.8026 9.49804 57.7663 9.4759 57.7697 9.47769C57.7862 9.48661 57.7648 9.48928 57.6923 9.36337L57.2263 9.63189L56.7603 9.90041C56.8706 10.0918 57.016 10.2934 57.2597 10.4247C57.4903 10.5488 57.7417 10.5724 57.971 10.5782L57.9846 10.0406Z" fill="#EFEFEF" mask="url(#path-4-inside-2_1_793)"/>
<path d="M53.7521 0.537842H62.9053L72.9137 17.8817L62.9053 35.2255H42.878L32.8643 17.8817L42.878 0.537842H44.5128" stroke="#EFEFEF" stroke-width="1.07559" stroke-miterlimit="10"/>
<path d="M45.0186 0.537842H46.7072" stroke="#EFEFEF" stroke-width="1.07559" stroke-miterlimit="10"/>
<path d="M88.894 28.1328C89.6811 29.5923 89.7242 31.5204 89.4282 33.1768C89.2503 34.1574 88.8732 35.1076 88.4146 36.0586C87.9485 37.0251 87.429 37.9363 86.9351 38.918C85.9674 40.8411 85.1893 42.8721 85.7427 45.1729L85.7837 45.3457L85.9595 45.375C86.0185 45.3848 86.087 45.3939 86.1509 45.3867C86.1856 45.3828 86.2354 45.3725 86.2856 45.3428C86.341 45.3099 86.3806 45.263 86.4048 45.2119C86.4259 45.1673 86.4319 45.1261 86.4341 45.1084C86.4352 45.0993 86.4347 45.0909 86.4351 45.0859C86.4973 44.9587 86.5449 44.8183 86.5835 44.7012C86.6275 44.5679 86.6653 44.4581 86.7144 44.3662C87.4224 43.0454 88.6357 42.0238 89.9907 41.0723C91.3254 40.135 92.825 39.25 93.9888 38.2412L94.1968 38.0615L94.0112 37.8574C92.1365 35.7941 92.5615 32.9751 94.3403 30.959C94.3837 30.9938 94.4374 31.0421 94.4976 31.1055C94.5766 31.1887 94.6509 31.2754 94.728 31.3613C94.7311 31.3647 94.7347 31.3676 94.7378 31.3711C94.0219 32.2064 93.5167 33.2242 93.3921 34.2656C93.2566 35.3987 93.5733 36.5519 94.5386 37.4941L94.7007 37.6514L94.8833 37.5195C95.5597 37.0341 96.3594 36.4876 96.9927 35.8252C97.5721 35.219 98.0316 34.4961 98.1401 33.6035L98.6909 33.6426L98.4839 34.623L97.7798 35.8926L97.4058 36.2383C95.3986 38.0907 93.1106 39.5728 90.8784 41.209L90.7739 41.2861L90.769 41.415C90.7655 41.5031 90.8031 41.568 90.8296 41.6025C90.856 41.637 90.8849 41.6606 90.9038 41.6738C90.9418 41.7005 90.9836 41.72 91.0161 41.7334C91.0848 41.7617 91.1739 41.7881 91.2681 41.8135C91.4597 41.865 91.713 41.9197 91.9673 41.9697C92.4753 42.0697 93.0138 42.1573 93.1274 42.1719H93.1313C94.9596 42.3805 96.989 42.174 98.6929 41.4082L98.6919 41.4072C99.1742 41.1923 99.6147 40.8982 100.031 40.626L100.38 41.1348C97.6115 42.9744 94.4206 43.0783 91.1626 42.3945C90.9506 42.3502 90.7842 42.2925 90.6343 42.2373C90.4923 42.185 90.3367 42.1235 90.1821 42.0957C90.0125 42.0653 89.8402 42.0725 89.647 42.1445C89.5086 42.1962 89.3651 42.2789 89.2075 42.3936L89.0454 42.5186C88.0235 43.3441 87.3695 44.2178 87.0249 45.1191C86.6797 46.0222 86.6518 46.9364 86.8569 47.8301C87.2391 49.4941 88.4268 51.0883 89.8706 52.4639L90.1626 52.7354C90.3296 52.888 90.8264 53.2795 91.2808 53.6221C91.4804 53.7726 91.6769 53.9152 91.8374 54.0293L91.0464 54.4756C88.2298 52.6521 86.5355 49.6116 85.5229 46.4219L85.2358 45.5146L85.0063 46.4385C84.6317 47.9473 83.663 49.9325 82.5562 51.5771C82.0038 52.3979 81.4228 53.1243 80.8735 53.6592C80.3579 54.1613 79.9018 54.4594 79.5454 54.5469L78.6909 54.0127C79.9114 53.1514 81.3195 51.919 82.3423 50.4961C83.4545 48.9488 84.1468 47.1286 83.5659 45.3135C83.1408 43.9806 81.9081 42.8141 80.8638 42.0635L80.7554 41.9854L80.6284 42.0244C78.7134 42.6079 76.6977 42.8919 74.6978 42.7441H74.6968C74.4082 42.7217 74.0883 42.6435 73.7437 42.5625C73.4353 42.49 73.1019 42.4161 72.7974 42.4033C72.5249 42.26 72.2359 42.1499 71.9614 42.0479C71.6614 41.9363 71.3782 41.8319 71.1138 41.6934L71.1118 41.6924C71.038 41.6542 70.765 41.4955 70.4985 41.332C70.3668 41.2512 70.241 41.1717 70.146 41.1084C70.1331 41.0998 70.1212 41.0907 70.1099 41.083C70.1419 41.0269 70.1876 40.9571 70.2456 40.8809C70.3177 40.7861 70.3981 40.6913 70.4683 40.6113C73.1385 42.4705 76.5529 42.5485 79.5688 41.7119L80.0894 41.5674L79.6597 41.2393L73.1958 36.2969L72.8706 36.0488L72.7749 35.9199C72.2416 35.2056 71.8768 34.4778 71.7993 33.626L72.3608 33.5527C72.3873 33.6624 72.4112 33.775 72.436 33.8975C72.4659 34.0449 72.4995 34.2034 72.5513 34.3672L72.6099 34.5332C72.8649 35.1796 73.3711 35.7292 73.9077 36.2021C74.4357 36.6675 75.0545 37.1079 75.5034 37.4727L75.6675 37.6055L75.8354 37.4775C76.9437 36.6354 77.2697 35.4716 77.1255 34.3174C76.9937 33.2629 76.4691 32.2129 75.7993 31.3799L76.2065 31.0078C77.6345 32.7129 78.289 34.8985 77.1675 36.8633L77.0483 37.0605C76.959 37.2017 76.8541 37.3185 76.7319 37.4619C76.6148 37.5995 76.4849 37.7591 76.3882 37.959L76.2017 38.3447H76.6304C76.6325 38.3451 76.6397 38.3469 76.6528 38.3535C76.6746 38.3644 76.6996 38.3817 76.7397 38.4111L76.7446 38.4141C77.7715 39.1331 79.2039 40.0546 80.5415 41.0645C81.7998 42.0145 82.9263 43.0094 83.5181 43.9346L83.6294 44.1191L84.1909 45.3057L84.4819 45.9219L84.6899 45.2725C85.3746 43.1331 84.6516 41.3038 83.8296 39.4717C83.4993 38.7349 83.136 38.0358 82.7837 37.3555C82.4302 36.6729 82.0875 36.0095 81.7915 35.332C81.2014 33.9813 80.8003 32.5868 80.8833 30.9326C80.9007 30.6066 80.977 30.2602 81.0581 29.8936C81.131 29.5639 81.2067 29.2129 81.2271 28.8809C81.3609 28.6396 81.4661 28.3888 81.5562 28.1387L82.0864 28.4287C81.189 30.3552 81.3308 32.1635 81.8892 33.8857C82.4618 35.6519 83.4945 37.3815 84.271 39.0293L84.272 39.0312C84.2851 39.0584 84.3325 39.1743 84.4058 39.3516C84.476 39.5216 84.5651 39.7359 84.6548 39.9434C84.7438 40.1494 84.8364 40.3542 84.9136 40.5049C84.9511 40.5782 84.9903 40.6499 85.0278 40.7031C85.0443 40.7265 85.0734 40.7656 85.1138 40.7979C85.1335 40.8136 85.1763 40.8441 85.2378 40.8574C85.3125 40.8736 85.4026 40.8604 85.4761 40.7998L85.5317 40.7539L85.5571 40.6855C85.9166 39.705 86.4031 38.7323 86.9038 37.7432C87.402 36.7591 87.9144 35.757 88.313 34.7383C89.0882 32.7567 89.4411 30.6751 88.4312 28.4277L88.894 28.1328ZM72.6558 42.9404C73.1277 43.2185 73.3124 43.5499 73.3394 43.8945C73.364 44.2112 73.2577 44.576 73.0386 44.9678C72.7652 44.7725 72.5362 44.6058 72.3677 44.4033C72.1726 44.1687 72.063 43.8899 72.1313 43.4521L72.1304 43.4512C72.1641 43.2416 72.2361 43.122 72.3169 43.0527C72.3881 42.9919 72.494 42.9485 72.6558 42.9404ZM71.7251 36.4932C71.9182 36.3623 72.179 36.2999 72.5229 36.3467L72.7505 36.377L72.7642 36.5332C72.8013 36.9728 72.6156 37.326 72.3071 37.5771C72.0068 37.8215 71.5929 37.9632 71.1802 37.9717C71.172 37.9292 71.1655 37.8639 71.1704 37.7744C71.1829 37.5475 71.2473 37.285 71.2788 37.1807L71.2798 37.1768C71.3745 36.8476 71.5306 36.625 71.7251 36.4932ZM98.0112 36.3535C98.4214 36.3066 98.7021 36.3661 98.8979 36.498C99.092 36.6289 99.248 36.8611 99.3433 37.2568C99.4039 37.5104 99.4422 37.6947 99.4546 37.8291C99.4609 37.8978 99.4574 37.9382 99.4546 37.96C99.4407 37.9615 99.4199 37.9654 99.3892 37.9639C99.2774 37.9584 99.1062 37.923 98.8501 37.8496H98.8511C98.4281 37.7269 98.1963 37.5695 98.061 37.373C97.9229 37.1723 97.8544 36.8863 97.8569 36.4375V36.3701L98.0112 36.3535ZM79.2485 27.4229C79.467 27.4435 79.6994 27.4921 79.7974 27.5166V27.5156C80.1757 27.6136 80.3936 27.7602 80.521 27.9414C80.6417 28.1132 80.7065 28.3537 80.7026 28.7051C80.6337 28.815 80.5891 28.8556 80.5474 28.8779C80.4935 28.9068 80.4054 28.9284 80.1997 28.9336H80.1978C79.8049 28.9458 79.522 28.7404 79.3228 28.4082C79.1509 28.1216 79.0548 27.7562 79.0269 27.416C79.0879 27.4137 79.1637 27.4149 79.2485 27.4229Z" fill="#EFEFEF" stroke="#EFEFEF" stroke-width="0.537793"/>
<mask id="path-9-inside-3_1_793" fill="white">
<path d="M98.0556 42.249C97.4909 42.5394 98.0287 42.3512 97.4909 42.647C97.9803 42.647 98.2707 42.8836 98.3514 43.3891C98.5127 44.4217 97.819 44.8089 97.0984 45.336C96.4261 44.3249 96.3239 43.287 97.4909 42.647C96.9155 42.6524 97.2489 42.5394 96.6251 42.5878"/>
</mask>
<path d="M98.0556 42.249C97.4909 42.5394 98.0287 42.3512 97.4909 42.647C97.9803 42.647 98.2707 42.8836 98.3514 43.3891C98.5127 44.4217 97.819 44.8089 97.0984 45.336C96.4261 44.3249 96.3239 43.287 97.4909 42.647C96.9155 42.6524 97.2489 42.5394 96.6251 42.5878" fill="#EFEFEF"/>
<path d="M98.3514 43.3891L98.8828 43.3061L98.8825 43.3044L98.3514 43.3891ZM97.0984 45.336L96.6505 45.6337L96.9619 46.102L97.4158 45.77L97.0984 45.336ZM98.0556 42.249L97.8097 41.7708C97.6698 41.8427 97.5609 41.9033 97.4838 41.9606C97.4451 41.9894 97.3777 42.0436 97.3218 42.1282C97.2494 42.2379 97.2345 42.3405 97.2298 42.3776C97.2286 42.3869 97.2359 42.2996 97.2856 42.209C97.3264 42.1345 97.374 42.0947 97.3815 42.0885C97.3917 42.0799 97.3662 42.1018 97.2318 42.1758L97.4909 42.647L97.7501 43.1182C97.8845 43.0443 97.9935 42.9788 98.0718 42.9133C98.1133 42.8785 98.1783 42.8179 98.2285 42.7264C98.2557 42.6769 98.2734 42.6278 98.2845 42.5814C98.2937 42.5432 98.2977 42.5063 98.2966 42.5144C98.2935 42.5384 98.2808 42.628 98.2194 42.7209C98.1745 42.7888 98.1271 42.8226 98.1258 42.8236C98.1234 42.8254 98.1591 42.8005 98.3016 42.7273L98.0556 42.249ZM97.4909 42.647V43.1848C97.651 43.1848 97.7078 43.2227 97.726 43.2382C97.744 43.2535 97.7935 43.3057 97.8203 43.4739L98.3514 43.3891L98.8825 43.3044C98.8287 42.9671 98.6926 42.6482 98.4229 42.4188C98.1534 42.1896 97.8203 42.1092 97.4909 42.1092V42.647ZM98.3514 43.3891L97.8201 43.4722C97.8762 43.8315 97.7895 44.0315 97.6426 44.2076C97.4543 44.4334 97.1835 44.6074 96.7809 44.9019L97.0984 45.336L97.4158 45.77C97.7338 45.5375 98.1702 45.2543 98.4686 44.8966C98.8084 44.4892 98.988 43.9794 98.8828 43.3061L98.3514 43.3891ZM97.0984 45.336L97.5462 45.0382C97.2407 44.5788 97.1182 44.1884 97.1411 43.8941C97.1607 43.643 97.2929 43.3689 97.7495 43.1185L97.4909 42.647L97.2324 42.1754C96.522 42.565 96.1218 43.13 96.0688 43.8105C96.0191 44.448 96.2837 45.0821 96.6505 45.6337L97.0984 45.336ZM97.4909 42.647L97.4859 42.1092C97.356 42.1104 97.301 42.1045 97.2818 42.1016C97.2733 42.1003 97.2842 42.1033 97.2416 42.0896C97.0723 42.0349 96.9139 42.026 96.5835 42.0517L96.6251 42.5878L96.6667 43.124C96.8148 43.1125 96.8828 43.1127 96.9123 43.1144C96.9243 43.115 96.9242 43.1157 96.9172 43.1143C96.9093 43.1127 96.9042 43.1109 96.9108 43.113C96.9346 43.1207 97.0091 43.148 97.1194 43.1648C97.2191 43.1801 97.3382 43.1862 97.496 43.1848L97.4909 42.647Z" fill="#EFEFEF" mask="url(#path-9-inside-3_1_793)"/>
<mask id="path-11-inside-4_1_793" fill="white">
<path d="M88.9507 28.2824C88.9507 28.2824 89.3218 28.5944 89.51 28.9224C89.4831 28.0727 89.7896 27.5994 90.6178 27.3843C90.833 27.3305 91.602 27.18 91.7311 27.3574C91.7257 28.2072 91.3062 29.3634 90.2737 29.3311C89.8488 29.3204 89.6982 29.2397 89.5154 28.9224"/>
</mask>
<path d="M88.9507 28.2824C88.9507 28.2824 89.3218 28.5944 89.51 28.9224C89.4831 28.0727 89.7896 27.5994 90.6178 27.3843C90.833 27.3305 91.602 27.18 91.7311 27.3574C91.7257 28.2072 91.3062 29.3634 90.2737 29.3311C89.8488 29.3204 89.6982 29.2397 89.5154 28.9224" fill="#EFEFEF"/>
<path d="M89.51 28.9224L89.0435 29.1901L90.0475 28.9054L89.51 28.9224ZM90.6178 27.3843L90.4874 26.8626L90.4826 26.8638L90.6178 27.3843ZM91.7311 27.3574L92.2689 27.3608L92.27 27.1841L92.166 27.0411L91.7311 27.3574ZM90.2737 29.3311L90.2905 28.7936L90.2873 28.7935L90.2737 29.3311ZM88.9507 28.2824C88.6046 28.6941 88.6046 28.6941 88.6045 28.694C88.6045 28.694 88.6045 28.694 88.6044 28.694C88.6044 28.6939 88.6043 28.6939 88.6043 28.6938C88.6042 28.6937 88.6041 28.6937 88.604 28.6936C88.6039 28.6935 88.6039 28.6935 88.604 28.6935C88.6041 28.6936 88.6045 28.694 88.6053 28.6947C88.6068 28.696 88.6096 28.6984 88.6135 28.7018C88.6214 28.7087 88.6337 28.7195 88.6495 28.7339C88.6811 28.7627 88.7257 28.8047 88.7752 28.8553C88.8798 28.9624 88.9829 29.0844 89.0435 29.1901L89.51 28.9224L89.9765 28.6548C89.8489 28.4324 89.6723 28.2344 89.5443 28.1035C89.4775 28.0351 89.4175 27.9786 89.3738 27.9387C89.3518 27.9187 89.3336 27.9027 89.3205 27.8912C89.3139 27.8854 89.3085 27.8808 89.3045 27.8774C89.3025 27.8757 89.3009 27.8743 89.2996 27.8732C89.2989 27.8726 89.2983 27.8721 89.2979 27.8717C89.2976 27.8715 89.2974 27.8713 89.2972 27.8712C89.2971 27.8711 89.297 27.871 89.297 27.871C89.2969 27.8709 89.2969 27.8709 89.2968 27.8709C89.2968 27.8708 89.2967 27.8708 88.9507 28.2824ZM89.51 28.9224L90.0475 28.9054C90.036 28.5407 90.0999 28.3432 90.1832 28.2247C90.2623 28.1122 90.414 27.9929 90.753 27.9048L90.6178 27.3843L90.4826 26.8638C89.9935 26.9909 89.5778 27.2157 89.3033 27.606C89.0331 27.9904 88.9571 28.4544 88.9725 28.9394L89.51 28.9224ZM90.6178 27.3843L90.7483 27.9061C90.8368 27.8839 91.0554 27.8386 91.2572 27.8196C91.3603 27.8099 91.4343 27.8095 91.4758 27.814C91.4966 27.8162 91.4891 27.8176 91.465 27.8086C91.4446 27.8008 91.3645 27.7677 91.2961 27.6738L91.7311 27.3574L92.166 27.0411C92.0654 26.9028 91.933 26.8355 91.845 26.8023C91.7533 26.7677 91.6629 26.7522 91.5901 26.7445C91.4444 26.7289 91.2884 26.7363 91.1562 26.7487C90.8875 26.7741 90.614 26.8309 90.4874 26.8626L90.6178 27.3843ZM91.7311 27.3574L91.1933 27.354C91.1911 27.7069 91.1003 28.1083 90.9263 28.3985C90.7623 28.6719 90.5604 28.802 90.2905 28.7936L90.2737 29.3311L90.2569 29.8687C91.0195 29.8925 91.5436 29.4606 91.8488 28.9516C92.144 28.4592 92.2657 27.8577 92.2689 27.3608L91.7311 27.3574ZM90.2737 29.3311L90.2873 28.7935C90.0917 28.7886 90.0554 28.7664 90.0587 28.7682C90.0753 28.7771 90.0539 28.7798 89.9813 28.6539L89.5154 28.9224L89.0494 29.1909C89.1597 29.3823 89.305 29.584 89.5488 29.7152C89.7793 29.8394 90.0308 29.863 90.26 29.8688L90.2737 29.3311Z" fill="#EFEFEF" mask="url(#path-11-inside-4_1_793)"/>
<path d="M84.3207 19.8284H75.1729L65.1592 37.1668L75.1729 54.5106H95.1949L105.209 37.1668L95.1949 19.8284H93.56" stroke="#EFEFEF" stroke-width="1.07559" stroke-miterlimit="10"/>
<path d="M85.0249 19.823H86.7136" stroke="#EFEFEF" stroke-width="1.07559" stroke-miterlimit="10"/>
<path d="M13.6815 54.016C16.2252 52.3112 19.8607 48.7886 18.7744 45.3952C18.3764 44.1475 17.204 43.0235 16.1715 42.2813C14.23 42.8729 12.181 43.1633 10.1428 43.0127C9.51359 42.9643 8.76606 42.6739 8.19062 42.6686C9.35225 43.3085 9.25007 44.3465 8.58321 45.3575C7.86257 44.8359 7.16882 44.4433 7.33016 43.4107C7.41082 42.9052 7.70123 42.6632 8.19062 42.6686C7.65283 42.3728 7.01824 42.2276 6.45355 41.9318C6.28684 41.8457 5.32957 41.2757 5.28117 41.195C5.17361 41.0337 5.7598 40.3991 5.89425 40.2539C8.50254 42.1845 11.9175 42.2975 14.9614 41.4531L8.49717 36.5108C8.58859 37.5918 7.56141 38.2533 6.58262 38.2425C6.20617 38.2425 6.41591 37.3337 6.48582 37.1024C6.70094 36.3549 7.23335 35.973 8.02391 36.0806C7.42158 35.2739 7.00748 34.4242 6.98059 33.3916L8.02391 33.2572C8.15298 33.6498 8.16911 34.037 8.32507 34.435C8.78757 35.6073 10.1912 36.4947 11.1377 37.2637C13.176 35.7149 12.3424 33.0152 10.8957 31.3534L11.697 30.622C13.3373 32.4559 14.1655 34.9674 12.7403 37.2046C12.536 37.5273 12.2563 37.7424 12.095 38.0758C12.1972 38.0758 12.2832 38.135 12.3639 38.1941C14.3914 39.6139 18.1613 41.9264 19.3283 43.9861L19.8984 45.1908C20.5491 43.1579 19.8715 41.4155 19.0487 39.5816C17.7418 36.6668 15.9079 34.3382 16.08 30.9178C16.1177 30.2133 16.4081 29.4442 16.4296 28.7935C16.2414 29.1162 16.0962 29.1915 15.6713 29.2022C14.6388 29.2345 14.2193 28.0782 14.2139 27.2285C14.343 27.0511 15.112 27.2016 15.3271 27.2554C16.1607 27.4705 16.4672 27.9438 16.435 28.7935C16.6232 28.4655 16.7523 28.1105 16.8706 27.7502L17.9032 28.3149C15.9402 32.1816 18.3925 35.5482 19.979 38.9148C20.0489 39.06 20.6782 40.668 20.7696 40.5927C22.2324 36.6023 25.7334 32.8001 23.5554 28.3256L24.4535 27.7556C25.4215 29.3205 25.4753 31.4502 25.158 33.2249C24.4212 37.2853 20.4093 40.7056 21.4687 45.1101C21.6946 45.1478 21.6032 45.0779 21.6516 44.9864C21.7645 44.7659 21.8183 44.4702 21.942 44.2389C23.4209 41.48 26.9757 40.0334 29.2775 38.0382C27.2446 35.8009 27.7824 32.7517 29.7131 30.6596C29.9336 30.5467 30.3907 31.2351 30.5735 31.3588C29.0193 33.0313 28.3901 35.5428 30.1917 37.3014C31.5631 36.3172 33.2894 35.1825 33.3593 33.3163L34.4833 33.397L34.2036 34.72L33.4454 36.086C34.3381 35.9838 34.8598 36.3226 35.0695 37.1938C35.3115 38.2049 35.2739 38.4039 34.2413 38.1081C33.3324 37.8446 33.0474 37.3767 33.0528 36.4355C31.0307 38.3017 28.7182 39.8021 26.5025 41.4263C26.4971 41.5607 28.417 41.878 28.6267 41.9049C30.4176 42.1093 32.3967 41.9049 34.0477 41.1627C34.5909 40.9207 35.0749 40.5765 35.5696 40.2592L36.2204 41.2058C33.3163 43.2494 29.9551 43.3677 26.5724 42.6578C25.6474 42.4642 25.5344 42.034 24.6793 42.7277C20.7051 45.9383 22.6895 49.6921 25.8087 52.537C26.1206 52.8221 27.7555 54.0698 27.8254 54.0429L26.5025 54.7904C23.5285 52.9296 21.7699 49.7728 20.7319 46.503C19.9629 49.6007 16.7899 54.5591 14.9614 54.8334L13.6869 54.0375L13.6815 54.016Z" fill="#EFEFEF"/>
<path d="M33.5151 42.249C32.9504 42.5394 33.4882 42.3512 32.9504 42.647C33.4398 42.647 33.7302 42.8836 33.8109 43.3891C33.9722 44.4217 33.2785 44.8089 32.5578 45.336C31.8856 44.3249 31.7834 43.287 32.9504 42.647C32.375 42.6524 32.7084 42.5394 32.0846 42.5878" fill="#EFEFEF"/>
<path d="M24.4155 28.2824C24.4155 28.2824 24.7866 28.5944 24.9748 28.9224C24.9479 28.0727 25.2545 27.5994 26.0827 27.3843C26.2978 27.3305 27.0668 27.18 27.1959 27.3574C27.1905 28.2072 26.7711 29.3634 25.7385 29.3311C25.3136 29.3204 25.1631 29.2397 24.9802 28.9224" fill="#EFEFEF"/>
<path d="M9.04586 22.5765L10.6323 19.8284H30.6597L40.6681 37.1668L30.6597 54.5106H10.6323L0.618652 37.1668L5.2598 29.0192" stroke="#EFEFEF" stroke-width="1.07559" stroke-miterlimit="10"/>
<path d="M5.72217 28.1963L6.42668 26.9971" stroke="#EFEFEF" stroke-width="1.07559" stroke-miterlimit="10"/>
</g>
<defs>
<clipPath id="clip0_1_793">
<rect width="105.827" height="55.0484" fill="white"/>
</clipPath>
</defs>
</svg>
