<svg width="60" height="74" viewBox="0 0 60 74" fill="none" xmlns="http://www.w3.org/2000/svg">
<g clip-path="url(#clip0_1_789)">
<path d="M39.9976 16.7253V18.7273H8.72021V16.7253H39.9976Z" fill="#EFEFEF" stroke="#EFEFEF" stroke-width="0.420559"/>
<path d="M39.9976 20.7627V22.7646H8.72021V20.7627H39.9976Z" fill="#EFEFEF" stroke="#EFEFEF" stroke-width="0.420559"/>
<path d="M33.6089 24.8V26.802H8.72021V24.8H33.6089Z" fill="#EFEFEF" stroke="#EFEFEF" stroke-width="0.420559"/>
<path d="M25.8286 12.4146V14.4165H8.72021V12.4146H25.8286Z" fill="#EFEFEF" stroke="#EFEFEF" stroke-width="0.420559"/>
<path d="M25.8286 28.8835V30.8855H8.72021V28.8835H25.8286Z" fill="#EFEFEF" stroke="#EFEFEF" stroke-width="0.420559"/>
<path d="M46.3857 0.572021V11.7883C46.3857 12.1416 46.6717 12.4234 47.0208 12.4234H56.2352" stroke="#EFEFEF" stroke-width="0.841118" stroke-miterlimit="10"/>
<path d="M1.1123 60.5605V69.1946C1.1123 69.4764 1.33941 69.7035 1.62118 69.7035L34.3449 69.3923" stroke="#EFEFEF" stroke-width="0.841118" stroke-miterlimit="10"/>
<path d="M56.2311 41.0761V12.23C56.2311 12.1248 56.1974 12.0197 56.1302 11.9356L46.5204 0.601495C46.4321 0.487944 46.2933 0.420654 46.1461 0.420654H1.58363C1.32288 0.420654 1.1084 0.630934 1.1084 0.895886V44.4658" stroke="#EFEFEF" stroke-width="0.841118" stroke-miterlimit="10"/>
<path d="M1.08301 46.0049V56.2287" stroke="#EFEFEF" stroke-width="0.841118" stroke-miterlimit="10"/>
<path d="M43.4334 39.2129L40.4937 45.8031" stroke="#EFEFEF" stroke-width="0.841118" stroke-miterlimit="10"/>
<path d="M45.2378 40.0835L39.064 54.5886" stroke="#EFEFEF" stroke-width="0.841118" stroke-miterlimit="10"/>
<path d="M51.8907 40.4451C46.1122 33.2914 35.4258 32.4419 28.5791 38.8176C22.7333 44.2596 21.8586 53.3521 26.5436 59.8203C31.1445 66.1707 39.4127 68.0674 46.1375 64.9721C46.4024 64.8502 46.7136 64.9174 46.8987 65.1446L53.2912 73.0595C53.5015 73.316 53.88 73.3581 54.1365 73.1478L58.5608 69.573C58.8173 69.3628 58.8594 68.9843 58.6491 68.7277L52.2566 60.8128C52.0716 60.5857 52.0758 60.2661 52.2482 60.0348C56.5253 54.3278 56.5715 46.2488 51.8865 40.4493L51.8907 40.4451Z" stroke="#EFEFEF" stroke-width="0.841118" stroke-miterlimit="10"/>
<path d="M39.5853 62.3099C46.1724 62.3099 51.5123 56.97 51.5123 50.3829C51.5123 43.7957 46.1724 38.4558 39.5853 38.4558C32.9981 38.4558 27.6582 43.7957 27.6582 50.3829C27.6582 56.97 32.9981 62.3099 39.5853 62.3099Z" stroke="#EFEFEF" stroke-width="0.841118" stroke-miterlimit="10"/>
</g>
<defs>
<clipPath id="clip0_1_789">
<rect width="58.546" height="73.703" fill="white" transform="translate(0.662598)"/>
</clipPath>
</defs>
</svg>
