<svg width="46" height="74" viewBox="0 0 46 74" fill="none" xmlns="http://www.w3.org/2000/svg">
<g clip-path="url(#clip0_1_783)">
<path d="M38.2105 73.3623H8.06906C4.29244 73.3623 1.22656 70.3006 1.22656 66.5198V23.3956C1.22656 21.7975 1.78591 20.2499 2.80787 19.0218L20.5471 8.43636C22.1956 7.45225 24.2522 7.45645 25.8966 8.44897L43.4255 19.0092C44.4769 20.2457 45.053 21.8185 45.053 23.4419V66.524C45.053 70.3006 41.9914 73.3665 38.2105 73.3665V73.3623Z" stroke="#EFEFEF" stroke-width="0.841118" stroke-miterlimit="10"/>
<path d="M23.1378 13.9877C20.1729 13.9877 17.7715 11.0438 17.7715 7.4144C17.7715 3.78498 20.1729 0.841064 23.1378 0.841064C26.1028 0.841064 28.5042 3.78498 28.5042 7.4144" stroke="#EFEFEF" stroke-width="1.68224" stroke-miterlimit="10"/>
<path d="M23.1929 56.2776L23.4097 56.2708C25.0016 56.2191 26.319 55.7739 27.3423 54.9221L27.3433 54.9231C28.3691 54.0733 28.8911 52.9926 28.8911 51.7034C28.8911 50.6796 28.4784 49.6914 27.6851 48.7463C26.8936 47.8036 25.4952 46.7085 23.5142 45.4651L23.1929 45.2629V56.2776ZM21.9937 27.4719C20.661 27.5801 19.5405 28.0144 18.644 28.7834C17.7465 29.5534 17.2837 30.4755 17.2837 31.5422C17.2838 32.4561 17.6887 33.3909 18.4595 34.342C19.2305 35.2934 20.3789 36.2757 21.894 37.2893L22.2212 37.5081V27.4534L21.9937 27.4719ZM22.2251 44.5627L22.1362 44.5002C18.761 42.1212 16.5066 40.2085 15.3403 38.761C14.1859 37.3271 13.6118 35.7703 13.6118 34.0901C13.6119 31.9991 14.418 30.208 16.0386 28.7063C17.6607 27.2033 19.6523 26.3963 22.02 26.2932L22.2212 26.2844V24.0051H23.1929V26.2825L23.396 26.2893C26.4623 26.3917 29.0013 27.3498 31.0327 29.1584L30.3853 35.0071H29.8511C29.67 32.6625 29.0568 30.8288 27.98 29.5315C26.8677 28.1918 25.3349 27.5094 23.4106 27.4749L23.1968 27.4709V38.2288L23.2915 38.2903C27.2099 40.8759 29.7786 42.9631 31.0259 44.553C32.2691 46.1379 32.8862 47.8638 32.8862 49.7395C32.8862 52.0022 32.0142 53.8521 30.2583 55.301C28.4995 56.7522 26.2245 57.4866 23.4067 57.4866H23.1968V63.0247H22.2251V57.4924L22.021 57.4866C18.3977 57.3839 15.5398 56.2582 13.4224 54.1331L14.4985 48.2209H15.0532C15.3492 50.6841 16.055 52.6026 17.1919 53.9543C18.3622 55.3459 19.9718 56.117 21.9985 56.2786L22.2251 56.2961V44.5627Z" fill="#EFEFEF" stroke="#EFEFEF" stroke-width="0.420559"/>
</g>
<defs>
<clipPath id="clip0_1_783">
<rect width="44.6676" height="73.7829" fill="white" transform="translate(0.806152)"/>
</clipPath>
</defs>
</svg>
