<svg width="164" height="67" viewBox="0 0 164 67" fill="none" xmlns="http://www.w3.org/2000/svg">
<g clip-path="url(#clip0_1_750)">
<g clip-path="url(#clip1_1_750)">
<path d="M82.7134 57.6482H68.4229C68.4229 55.1365 70.4603 53.103 72.968 53.103H90.4374C92.9491 53.103 94.9826 55.1405 94.9826 57.6482H91.6953" stroke="#EFEFEF" stroke-width="0.803745" stroke-miterlimit="10"/>
<path d="M98.5674 22.5527H87.2627L87.4034 19.5909H98.4508L98.5674 22.5527Z" fill="#EFEFEF"/>
<path d="M86.206 22.5527H82.7539L82.9548 19.5909H86.4029L86.206 22.5527Z" fill="#EFEFEF"/>
<path d="M91.1447 8.68008H82.3276L82.3799 7.61914H91.1005L91.1447 8.68008Z" fill="#EFEFEF"/>
<path d="M81.4131 7.82031L81.3682 8.47949H77.2461L77.291 7.82031H81.4131Z" fill="#EFEFEF" stroke="#EFEFEF" stroke-width="0.401872"/>
<path d="M79.3859 2.90917C79.631 2.92926 79.8761 2.94132 80.1213 2.94132H83.3242C83.6939 2.94132 84.0596 2.91319 84.4173 2.86898C84.3369 1.54682 83.2438 0.501953 81.9016 0.501953C80.5593 0.501953 79.4461 1.57093 79.3818 2.90917H79.3859Z" stroke="#EFEFEF" stroke-width="0.803745" stroke-miterlimit="10"/>
<path d="M83.236 29.5211H81.1182V43.5585H83.236V29.5211Z" fill="#EFEFEF"/>
<path d="M86.7285 34.6249V32.5071H77.6221V34.6249H86.7285Z" fill="#EFEFEF"/>
<path d="M86.0851 3.45579C85.2131 3.15036 84.2767 2.9856 83.3042 2.9856H80.1012C75.4516 2.9856 71.686 6.75516 71.686 11.4008H91.7234C91.7234 9.49593 91.0884 7.73573 90.0235 6.32516" stroke="#EFEFEF" stroke-width="0.803745" stroke-miterlimit="10"/>
<path d="M66.7151 15.1783C67.117 14.4951 67.5872 13.8963 68.1257 13.386C69.0058 12.5501 70.1792 11.8508 71.7787 11.4851H91.7317C93.3914 11.8669 94.597 12.5983 95.4932 13.4583C101.272 19.0242 99.1502 34.9384 90.948 53.1754H72.5222C68.5838 44.2458 66.0681 35.8908 65.188 29.0309" stroke="#EFEFEF" stroke-width="0.803745" stroke-miterlimit="10"/>
<path d="M64.7017 24.5059C64.7017 24.5059 64.9026 27.0296 65.0433 28.0544" stroke="#EFEFEF" stroke-width="0.803745" stroke-miterlimit="10"/>
<path d="M86.688 3.72095C86.688 3.72095 87.5279 4.03843 88.1789 4.66937" stroke="#EFEFEF" stroke-width="0.803745" stroke-miterlimit="10"/>
<path d="M90.9721 57.6443H89.3164" stroke="#EFEFEF" stroke-width="0.803745" stroke-miterlimit="10"/>
<path d="M94.0185 19.5909H69.4399" stroke="#EFEFEF" stroke-width="0.803745" stroke-miterlimit="10"/>
<path d="M82.9305 8.78455H80.5273" stroke="#EFEFEF" stroke-width="0.401872" stroke-miterlimit="10"/>
<path d="M84.8598 7.56287H78.5986" stroke="#EFEFEF" stroke-width="0.401872" stroke-miterlimit="10"/>
<path d="M91.4101 22.7656H72.0479" stroke="#EFEFEF" stroke-width="0.803745" stroke-miterlimit="10"/>
</g>
</g>
<defs>
<clipPath id="clip0_1_750">
<rect width="163" height="66" fill="white" transform="translate(0.299805 0.0500488)"/>
</clipPath>
<clipPath id="clip1_1_750">
<rect width="34.8584" height="57.95" fill="white" transform="translate(64.2998 0.100098)"/>
</clipPath>
</defs>
</svg>
