<svg width="164" height="66" viewBox="0 0 164 66" fill="none" xmlns="http://www.w3.org/2000/svg">
<g clip-path="url(#clip0_1_756)">
<path d="M85.7134 11.8828C86.5039 13.3489 86.5478 15.2854 86.2505 16.9492C86.0717 17.9344 85.6927 18.8893 85.2319 19.8447C84.7637 20.8156 84.2418 21.7307 83.7456 22.7168C82.7735 24.6487 81.9914 26.6897 82.5474 29.001L82.5894 29.1748L82.7661 29.2041C82.8253 29.214 82.8944 29.222 82.9585 29.2148C82.9933 29.2109 83.043 29.2007 83.0933 29.1709C83.149 29.1378 83.189 29.0906 83.2134 29.0391C83.2345 28.9943 83.2405 28.9533 83.2427 28.9355C83.2438 28.9264 83.2432 28.918 83.2437 28.9131C83.3061 28.7853 83.3533 28.644 83.3921 28.5264C83.4143 28.4591 83.4353 28.3978 83.4565 28.3418L83.5239 28.1895C84.2352 26.8627 85.4548 25.8367 86.8159 24.8809C88.1566 23.9394 89.6625 23.0504 90.8315 22.0371L91.0405 21.8564L90.855 21.6514C88.9715 19.5786 89.3981 16.7471 91.1851 14.7217C91.2287 14.7566 91.2828 14.8055 91.3433 14.8691C91.4225 14.9527 91.4973 15.0398 91.5747 15.126C91.5776 15.1292 91.5805 15.1324 91.5835 15.1357C90.8645 15.9748 90.358 16.9979 90.2329 18.0439C90.0969 19.182 90.4148 20.3397 91.3843 21.2861L91.5464 21.4443L91.731 21.3125C92.4105 20.8249 93.214 20.2758 93.8501 19.6104C94.4322 19.0014 94.8925 18.2746 95.0015 17.3779L95.5552 17.418L95.3472 18.4033L94.6421 19.6748L94.2642 20.0244C92.2478 21.8852 89.9499 23.3749 87.7075 25.0186L87.6021 25.0957L87.5972 25.2256C87.5936 25.3141 87.6311 25.3793 87.6577 25.4141C87.6842 25.4486 87.7139 25.472 87.7329 25.4854C87.7709 25.512 87.8126 25.5315 87.8452 25.5449C87.9142 25.5733 88.0036 25.6005 88.0981 25.626C88.2906 25.6777 88.5458 25.7319 88.8013 25.7822C89.3113 25.8826 89.8517 25.9706 89.9663 25.9854L89.9702 25.9863C91.6921 26.1828 93.5919 26.0124 95.2329 25.3564L95.5571 25.2188C96.0415 25.0029 96.484 24.7071 96.9019 24.4336L97.2524 24.9443C94.4709 26.7922 91.2655 26.8958 87.9927 26.209L87.7036 26.1348C87.6166 26.1078 87.5376 26.0785 87.4624 26.0508C87.3198 25.9983 87.1635 25.9371 87.0083 25.9092C86.8378 25.8786 86.6644 25.8865 86.4702 25.959C86.3313 26.0108 86.187 26.093 86.0288 26.208L85.8657 26.334C84.8392 27.1633 84.1816 28.0408 83.8354 28.9463C83.4888 29.8534 83.4615 30.7714 83.6675 31.6689C84.0513 33.3406 85.2444 34.9423 86.6948 36.3242L86.9878 36.5977C87.1556 36.751 87.6554 37.1432 88.1118 37.4873C88.3122 37.6384 88.5093 37.7819 88.6704 37.8965L87.8755 38.3457C85.0461 36.5139 83.3448 33.4591 82.3276 30.2549L82.0386 29.3438L81.8081 30.2715C81.4318 31.7871 80.4591 33.7814 79.3472 35.4336C78.7922 36.2582 78.2085 36.988 77.6567 37.5254C77.1389 38.0297 76.6807 38.3289 76.3228 38.417L75.4634 37.8809C76.6897 37.0155 78.1047 35.7774 79.1323 34.3477C80.2496 32.7932 80.9445 30.965 80.3608 29.1416C79.9337 27.8025 78.6961 26.6301 77.647 25.876L77.5376 25.7979L77.4097 25.8369C75.486 26.423 73.4606 26.709 71.4517 26.5605C71.1617 26.538 70.84 26.4593 70.4937 26.3779C70.1843 26.3052 69.8501 26.2318 69.5444 26.2188C69.2705 26.0745 68.9797 25.964 68.7036 25.8613C68.4022 25.7492 68.1177 25.644 67.8521 25.5049H67.8501C67.7764 25.4668 67.5027 25.3069 67.2349 25.1426C67.1023 25.0612 66.9749 24.9807 66.8794 24.917C66.8664 24.9083 66.8547 24.8994 66.8433 24.8916C66.8755 24.8353 66.9227 24.766 66.981 24.6895C67.0532 24.5945 67.1323 24.4982 67.2026 24.418C69.885 26.2861 73.3153 26.3648 76.3452 25.5244L76.8687 25.3789L76.437 25.0488L69.9438 20.084L69.6187 19.8359L69.521 19.7051C68.9851 18.9874 68.6183 18.2562 68.5405 17.4004L69.105 17.3271C69.1315 17.4373 69.1552 17.5508 69.1802 17.6738C69.2202 17.8713 69.2675 18.0882 69.355 18.3115V18.3125C69.6112 18.9619 70.1196 19.5141 70.6587 19.9893C71.1891 20.4567 71.8113 20.8983 72.2622 21.2646L72.4263 21.3984L72.5952 21.2705C73.7085 20.4245 74.0359 19.2552 73.8911 18.0957C73.7588 17.0363 73.232 15.9814 72.5591 15.1445L72.9692 14.7715C74.4512 16.5416 75.1028 18.8274 73.814 20.8506V20.8516C73.7242 20.9932 73.6182 21.1099 73.4956 21.2539C73.378 21.3921 73.248 21.5523 73.1509 21.7529L72.9634 22.1406H73.394C73.3962 22.141 73.4032 22.1428 73.4165 22.1494C73.4384 22.1604 73.4639 22.1783 73.5044 22.208L73.5093 22.2109C74.5409 22.9333 75.9799 23.8585 77.3237 24.873C78.6667 25.887 79.8598 26.952 80.4185 27.9297L80.9888 29.1338L81.2817 29.7529L81.4897 29.1006C82.1777 26.9513 81.4513 25.114 80.6255 23.2734C80.2936 22.5332 79.9286 21.8309 79.5747 21.1475C79.2196 20.4617 78.876 19.795 78.5786 19.1143C77.9857 17.7572 77.583 16.3564 77.6665 14.6943C77.684 14.3669 77.7608 14.0196 77.8423 13.6514C77.9155 13.3205 77.9907 12.9681 78.0112 12.6348C78.1459 12.3922 78.2518 12.1402 78.3423 11.8887L78.8745 12.1797C77.9731 14.1149 78.1163 15.9311 78.6772 17.6611C79.2525 19.4355 80.2897 21.1736 81.0698 22.8291L81.0708 22.8311C81.0841 22.8589 81.1313 22.975 81.2046 23.1523C81.2752 23.3232 81.3645 23.5386 81.4546 23.7471C81.544 23.9541 81.6368 24.1602 81.7144 24.3115C81.752 24.3851 81.792 24.4563 81.8296 24.5098C81.8461 24.5332 81.8757 24.5729 81.9165 24.6055C81.9363 24.6212 81.9789 24.6516 82.0405 24.665C82.1156 24.6813 82.2059 24.6683 82.2798 24.6074L82.3364 24.5615L82.3618 24.4922C82.7229 23.5072 83.2114 22.5307 83.7144 21.5371C84.2148 20.5485 84.73 19.542 85.1304 18.5186C85.9092 16.5279 86.2632 14.4365 85.2485 12.1787L85.7134 11.8828ZM69.4009 26.7578C69.8752 27.0373 70.0614 27.3704 70.0884 27.7168C70.113 28.0347 70.0055 28.4006 69.7856 28.7939C69.5111 28.5979 69.281 28.4309 69.1118 28.2275C68.9157 27.9919 68.8058 27.7113 68.8745 27.2715L68.8735 27.2705C68.9075 27.0599 68.9798 26.9396 69.061 26.8701C69.1325 26.809 69.2387 26.766 69.4009 26.7578ZM68.4663 20.2812C68.6603 20.1498 68.9225 20.0868 69.2681 20.1338L69.4966 20.1641L69.5103 20.3213C69.5476 20.7631 69.3604 21.1178 69.0503 21.3701C68.7485 21.6156 68.3332 21.7572 67.9185 21.7656C67.9103 21.7228 67.9038 21.657 67.9087 21.5674C67.9213 21.3397 67.9854 21.0766 68.0171 20.9717L68.0181 20.9678C68.1132 20.637 68.2709 20.4137 68.4663 20.2812ZM94.8726 20.1406C95.2848 20.0935 95.5674 20.1535 95.7642 20.2861C95.9345 20.4011 96.0758 20.5939 96.1724 20.9062L96.2104 21.0479C96.2715 21.3028 96.3103 21.488 96.3228 21.623C96.329 21.6914 96.3255 21.7319 96.3228 21.7539C96.3087 21.7555 96.2877 21.7594 96.2563 21.7578C96.1441 21.7523 95.9726 21.7172 95.7153 21.6436H95.7163C95.2913 21.5203 95.0582 21.3624 94.9224 21.165C94.7836 20.9633 94.7147 20.6757 94.7173 20.2246V20.1582L94.8726 20.1406ZM76.0239 11.1689C76.2415 11.1895 76.4728 11.2369 76.5728 11.2617V11.2627C76.9539 11.3611 77.174 11.5073 77.3022 11.6895C77.4236 11.862 77.4887 12.104 77.4849 12.457C77.4155 12.5676 77.3705 12.6084 77.3286 12.6309C77.2745 12.6598 77.1862 12.6813 76.98 12.6865H76.978C76.5833 12.6989 76.2993 12.4929 76.0991 12.1592C75.9264 11.8712 75.8303 11.5039 75.8022 11.1621C75.8634 11.1599 75.9391 11.1609 76.0239 11.1689Z" fill="#EFEFEF" stroke="#EFEFEF" stroke-width="0.54025"/>
<mask id="path-2-inside-1_1_756" fill="white">
<path d="M94.9119 26.0686C94.3446 26.3603 94.8849 26.1712 94.3446 26.4684C94.8362 26.4684 95.128 26.7061 95.209 27.2139C95.3711 28.2512 94.6742 28.6402 93.9502 29.1696C93.2749 28.154 93.1723 27.1113 94.3446 26.4684C93.7666 26.4738 94.1015 26.3603 93.4748 26.409"/>
</mask>
<path d="M94.9119 26.0686C94.3446 26.3603 94.8849 26.1712 94.3446 26.4684C94.8362 26.4684 95.128 26.7061 95.209 27.2139C95.3711 28.2512 94.6742 28.6402 93.9502 29.1696C93.2749 28.154 93.1723 27.1113 94.3446 26.4684C93.7666 26.4738 94.1015 26.3603 93.4748 26.409" fill="#EFEFEF"/>
<path d="M95.209 27.2139L95.7428 27.1305L95.7425 27.1288L95.209 27.2139ZM93.9502 29.1696L93.5004 29.4688L93.8132 29.9392L94.2692 29.6057L93.9502 29.1696ZM94.9119 26.0686L94.6648 25.5882C94.5243 25.6604 94.4149 25.7213 94.3375 25.7789C94.2986 25.8078 94.2309 25.8623 94.1747 25.9472C94.102 26.0574 94.087 26.1605 94.0823 26.1978C94.0811 26.2071 94.0884 26.1194 94.1383 26.0284C94.1794 25.9535 94.2271 25.9136 94.2346 25.9073C94.2449 25.8987 94.2193 25.9207 94.0843 25.995L94.3446 26.4684L94.605 26.9418C94.74 26.8675 94.8495 26.8017 94.9282 26.7359C94.9698 26.701 95.0351 26.6401 95.0856 26.5481C95.1129 26.4984 95.1307 26.4491 95.1419 26.4025C95.1511 26.3641 95.155 26.327 95.154 26.3352C95.1509 26.3593 95.1381 26.4493 95.0764 26.5427C95.0313 26.6109 94.9837 26.6448 94.9823 26.6458C94.98 26.6476 95.0159 26.6226 95.159 26.549L94.9119 26.0686ZM94.3446 26.4684V27.0086C94.5054 27.0086 94.5625 27.0467 94.5808 27.0623C94.5989 27.0776 94.6486 27.1301 94.6755 27.2991L95.209 27.2139L95.7425 27.1288C95.6885 26.79 95.5517 26.4696 95.2808 26.2392C95.0101 26.0089 94.6755 25.9281 94.3446 25.9281V26.4684ZM95.209 27.2139L94.6752 27.2973C94.7316 27.6583 94.6446 27.8592 94.497 28.0362C94.3078 28.263 94.0358 28.4378 93.6313 28.7336L93.9502 29.1696L94.2692 29.6057C94.5886 29.3721 95.027 29.0877 95.3268 28.7283C95.6681 28.319 95.8485 27.8069 95.7428 27.1305L95.209 27.2139ZM93.9502 29.1696L94.4001 28.8705C94.0933 28.409 93.9701 28.0168 93.9932 27.7212C94.0128 27.4689 94.1457 27.1936 94.6044 26.9421L94.3446 26.4684L94.0849 25.9947C93.3712 26.386 92.9692 26.9536 92.9159 27.6373C92.866 28.2776 93.1319 28.9146 93.5004 29.4688L93.9502 29.1696ZM94.3446 26.4684L94.3396 25.9282C94.209 25.9294 94.1538 25.9234 94.1346 25.9205C94.126 25.9192 94.137 25.9223 94.0941 25.9084C93.9241 25.8535 93.7649 25.8446 93.433 25.8703L93.4748 26.409L93.5166 26.9476C93.6654 26.9361 93.7337 26.9362 93.7634 26.9379C93.7754 26.9386 93.7753 26.9392 93.7682 26.9378C93.7603 26.9363 93.7552 26.9344 93.7618 26.9365C93.7858 26.9443 93.8606 26.9717 93.9714 26.9886C94.0715 27.0039 94.1912 27.0101 94.3497 27.0086L94.3446 26.4684Z" fill="#EFEFEF" mask="url(#path-2-inside-1_1_756)"/>
<mask id="path-4-inside-2_1_756" fill="white">
<path d="M85.771 12.0329C85.771 12.0329 86.1438 12.3462 86.3329 12.6758C86.3058 11.8222 86.6138 11.3468 87.4458 11.1307C87.6619 11.0767 88.4344 10.9254 88.5641 11.1037C88.5587 11.9573 88.1373 13.1188 87.1 13.0864C86.6732 13.0756 86.5219 12.9945 86.3383 12.6758"/>
</mask>
<path d="M85.771 12.0329C85.771 12.0329 86.1438 12.3462 86.3329 12.6758C86.3058 11.8222 86.6138 11.3468 87.4458 11.1307C87.6619 11.0767 88.4344 10.9254 88.5641 11.1037C88.5587 11.9573 88.1373 13.1188 87.1 13.0864C86.6732 13.0756 86.5219 12.9945 86.3383 12.6758" fill="#EFEFEF"/>
<path d="M86.3329 12.6758L85.8643 12.9447L86.8728 12.6587L86.3329 12.6758ZM87.4458 11.1307L87.3147 10.6065L87.31 10.6078L87.4458 11.1307ZM88.5641 11.1037L89.1043 11.1071L89.1055 10.9295L89.001 10.7859L88.5641 11.1037ZM87.1 13.0864L87.1169 12.5464L87.1137 12.5463L87.1 13.0864ZM85.771 12.0329C85.4234 12.4465 85.4233 12.4464 85.4233 12.4464C85.4233 12.4464 85.4232 12.4463 85.4232 12.4463C85.4231 12.4462 85.4231 12.4462 85.423 12.4461C85.4229 12.4461 85.4228 12.446 85.4228 12.4459C85.4227 12.4459 85.4226 12.4458 85.4227 12.4459C85.4228 12.446 85.4232 12.4464 85.424 12.447C85.4255 12.4483 85.4283 12.4507 85.4323 12.4542C85.4402 12.4611 85.4526 12.472 85.4684 12.4864C85.5002 12.5154 85.545 12.5575 85.5947 12.6084C85.6998 12.716 85.8033 12.8385 85.8643 12.9447L86.3329 12.6758L86.8015 12.4069C86.6733 12.1836 86.4959 11.9846 86.3674 11.8531C86.3002 11.7845 86.24 11.7277 86.196 11.6876C86.1739 11.6675 86.1557 11.6514 86.1425 11.6399C86.1359 11.6341 86.1305 11.6294 86.1264 11.626C86.1244 11.6243 86.1228 11.6229 86.1215 11.6217C86.1208 11.6212 86.1202 11.6207 86.1198 11.6203C86.1195 11.6201 86.1193 11.6199 86.1191 11.6198C86.119 11.6197 86.1189 11.6196 86.1189 11.6195C86.1188 11.6195 86.1188 11.6195 86.1187 11.6194C86.1187 11.6194 86.1186 11.6193 85.771 12.0329ZM86.3329 12.6758L86.8728 12.6587C86.8612 12.2923 86.9254 12.094 87.0091 11.9749C87.0886 11.8619 87.241 11.742 87.5816 11.6536L87.4458 11.1307L87.31 10.6078C86.8185 10.7354 86.401 10.9613 86.1253 11.3534C85.8537 11.7395 85.7775 12.2057 85.7929 12.6929L86.3329 12.6758ZM87.4458 11.1307L87.5768 11.6548C87.6657 11.6326 87.8853 11.587 88.0881 11.5679C88.1916 11.5582 88.2659 11.5578 88.3077 11.5623C88.3286 11.5645 88.321 11.566 88.2968 11.5569C88.2763 11.5491 88.1958 11.5158 88.1272 11.4214L88.5641 11.1037L89.001 10.7859C88.8999 10.647 88.7669 10.5794 88.6785 10.546C88.5864 10.5112 88.4956 10.4957 88.4224 10.4879C88.2761 10.4723 88.1194 10.4797 87.9866 10.4922C87.7166 10.5177 87.4419 10.5748 87.3147 10.6066L87.4458 11.1307ZM88.5641 11.1037L88.0238 11.1003C88.0216 11.4547 87.9304 11.858 87.7557 12.1494C87.5909 12.4242 87.388 12.5549 87.1169 12.5464L87.1 13.0864L87.0831 13.6264C87.8493 13.6503 88.3757 13.2164 88.6823 12.7051C88.9789 12.2105 89.1012 11.6062 89.1043 11.1071L88.5641 11.1037ZM87.1 13.0864L87.1137 12.5463C86.9172 12.5413 86.8808 12.5191 86.8841 12.5209C86.9007 12.5299 86.8792 12.5325 86.8063 12.4061L86.3383 12.6758L85.8702 12.9455C85.981 13.1378 86.1269 13.3404 86.3718 13.4722C86.6034 13.5969 86.856 13.6206 87.0863 13.6265L87.1 13.0864Z" fill="#EFEFEF" mask="url(#path-4-inside-2_1_756)"/>
<path d="M82.8481 3.54028H92.0431L102.097 20.9633L92.0431 38.3864H71.9242L61.8647 20.9633L71.9242 3.54028H73.5666" stroke="#EFEFEF" stroke-width="0.837879" stroke-miterlimit="10"/>
<path d="M74.0742 3.54028H75.7706" stroke="#EFEFEF" stroke-width="1.0805" stroke-miterlimit="10"/>
<path d="M118.15 31.2617C118.94 32.7278 118.984 34.6643 118.687 36.3281C118.508 37.3133 118.129 38.2683 117.668 39.2236C117.2 40.1945 116.678 41.1096 116.182 42.0957C115.21 44.0276 114.428 46.0686 114.984 48.3799L115.026 48.5537L115.203 48.583C115.262 48.5929 115.331 48.6009 115.395 48.5938C115.43 48.5898 115.48 48.5796 115.53 48.5498C115.586 48.5167 115.626 48.4695 115.65 48.418C115.671 48.3732 115.677 48.3322 115.679 48.3145C115.68 48.3053 115.68 48.297 115.68 48.292C115.743 48.1642 115.79 48.0229 115.829 47.9053C115.851 47.838 115.872 47.7767 115.893 47.7207L115.96 47.5684C116.672 46.2416 117.891 45.2156 119.252 44.2598C120.593 43.3183 122.099 42.4293 123.268 41.416L123.477 41.2354L123.292 41.0303C121.408 38.9575 121.835 36.126 123.622 34.1006C123.665 34.1355 123.719 34.1844 123.78 34.248C123.859 34.3316 123.934 34.4187 124.011 34.5049C124.014 34.5081 124.017 34.5114 124.02 34.5146C123.301 35.3537 122.795 36.3768 122.669 37.4229C122.533 38.5609 122.851 39.7186 123.821 40.665L123.983 40.8232L124.167 40.6914C124.847 40.2038 125.651 39.6547 126.287 38.9893C126.869 38.3803 127.329 37.6535 127.438 36.7568L127.992 36.7969L127.784 37.7822L127.079 39.0537L126.701 39.4033C124.684 41.2641 122.386 42.7538 120.144 44.3975L120.039 44.4746L120.034 44.6045C120.03 44.693 120.068 44.7582 120.094 44.793C120.121 44.8275 120.15 44.8509 120.169 44.8643C120.207 44.8909 120.249 44.9104 120.282 44.9238C120.351 44.9522 120.44 44.9794 120.535 45.0049C120.727 45.0566 120.982 45.1109 121.238 45.1611C121.748 45.2615 122.288 45.3495 122.403 45.3643H122.407C124.129 45.5607 126.028 45.3913 127.669 44.7354L127.994 44.5977C128.478 44.3818 128.92 44.086 129.338 43.8125L129.689 44.3232C126.907 46.1711 123.702 46.2747 120.429 45.5879L120.14 45.5137C120.053 45.4867 119.974 45.4574 119.899 45.4297C119.756 45.3772 119.6 45.316 119.445 45.2881C119.274 45.2575 119.101 45.2654 118.907 45.3379C118.768 45.3897 118.624 45.4719 118.465 45.5869L118.302 45.7129C117.276 46.5422 116.618 47.4197 116.272 48.3252C115.925 49.2323 115.898 50.1503 116.104 51.0479C116.488 52.7196 117.681 54.3213 119.131 55.7031L119.424 55.9766C119.592 56.1299 120.092 56.5221 120.548 56.8662C120.749 57.0173 120.946 57.1608 121.107 57.2754L120.312 57.7246C117.483 55.8928 115.781 52.838 114.764 49.6338L114.475 48.7227L114.245 49.6504C113.868 51.1661 112.896 53.1603 111.784 54.8125C111.229 55.6371 110.645 56.3669 110.093 56.9043C109.575 57.4086 109.117 57.7078 108.759 57.7959L107.9 57.2598C109.126 56.3944 110.541 55.1563 111.569 53.7266C112.686 52.1721 113.381 50.3439 112.797 48.5205C112.37 47.1814 111.133 46.009 110.083 45.2549L109.974 45.1768L109.846 45.2158C107.923 45.8019 105.897 46.0879 103.888 45.9395C103.598 45.9169 103.277 45.8383 102.93 45.7568C102.621 45.6841 102.287 45.6107 101.981 45.5977C101.707 45.4534 101.416 45.3429 101.14 45.2402C100.839 45.1281 100.554 45.0229 100.289 44.8838H100.287C100.213 44.8457 99.9392 44.6858 99.6714 44.5215C99.5388 44.4401 99.4114 44.3596 99.3159 44.2959C99.3029 44.2872 99.2912 44.2783 99.2798 44.2705C99.312 44.2142 99.3592 44.1449 99.4175 44.0684C99.4898 43.9734 99.5688 43.8771 99.6392 43.7969C102.322 45.665 105.752 45.7437 108.782 44.9033L109.305 44.7578L108.874 44.4277L102.38 39.4629L102.055 39.2148L101.958 39.084C101.422 38.3663 101.055 37.6351 100.977 36.7793L101.542 36.7061C101.568 36.8162 101.592 36.9297 101.617 37.0527C101.657 37.2502 101.704 37.4671 101.792 37.6904V37.6914C102.048 38.3408 102.556 38.893 103.095 39.3682C103.626 39.8356 104.248 40.2772 104.699 40.6436L104.863 40.7773L105.032 40.6494C106.145 39.8034 106.472 38.6341 106.328 37.4746C106.195 36.4152 105.669 35.3603 104.996 34.5234L105.406 34.1504C106.888 35.9205 107.539 38.2063 106.25 40.2295V40.2305C106.161 40.3721 106.055 40.4888 105.932 40.6328C105.815 40.771 105.685 40.9312 105.587 41.1318L105.4 41.5195H105.831C105.833 41.5199 105.84 41.5217 105.853 41.5283C105.875 41.5393 105.9 41.5572 105.941 41.5869L105.946 41.5898C106.977 42.3122 108.416 43.2374 109.76 44.252C111.103 45.2659 112.296 46.3309 112.855 47.3086L113.425 48.5127L113.718 49.1318L113.926 48.4795C114.614 46.3302 113.888 44.4929 113.062 42.6523C112.73 41.9121 112.365 41.2098 112.011 40.5264C111.656 39.8406 111.313 39.1739 111.015 38.4932C110.422 37.1361 110.02 35.7353 110.103 34.0732C110.121 33.7459 110.197 33.3985 110.279 33.0303C110.352 32.6994 110.427 32.347 110.448 32.0137C110.582 31.7711 110.688 31.5191 110.779 31.2676L111.311 31.5586C110.41 33.4938 110.553 35.31 111.114 37.04C111.689 38.8144 112.726 40.5525 113.506 42.208L113.507 42.21C113.521 42.2378 113.568 42.3539 113.641 42.5312C113.712 42.7021 113.801 42.9175 113.891 43.126C113.981 43.333 114.073 43.5391 114.151 43.6904C114.189 43.764 114.228 43.8352 114.266 43.8887C114.283 43.9122 114.312 43.9518 114.353 43.9844C114.373 44.0001 114.415 44.0305 114.477 44.0439C114.552 44.0602 114.642 44.0472 114.716 43.9863L114.773 43.9404L114.798 43.8711C115.159 42.8861 115.648 41.9096 116.151 40.916C116.651 39.9274 117.167 38.9209 117.567 37.8975C118.346 35.9068 118.7 33.8154 117.685 31.5576L118.15 31.2617ZM101.837 46.1367C102.312 46.4162 102.498 46.7493 102.525 47.0957C102.55 47.4136 102.442 47.7795 102.222 48.1729C101.948 47.9768 101.718 47.8098 101.548 47.6064C101.352 47.3708 101.242 47.0902 101.311 46.6504L101.31 46.6494C101.344 46.4388 101.416 46.3185 101.498 46.249C101.569 46.1879 101.675 46.1449 101.837 46.1367ZM100.903 39.6602C101.097 39.5287 101.359 39.4657 101.705 39.5127L101.933 39.543L101.947 39.7002C101.984 40.142 101.797 40.4967 101.487 40.749C101.185 40.9945 100.77 41.1361 100.355 41.1445C100.347 41.1017 100.34 41.0359 100.345 40.9463C100.358 40.7186 100.422 40.4555 100.454 40.3506L100.455 40.3467C100.55 40.0159 100.707 39.7926 100.903 39.6602ZM127.309 39.5195C127.721 39.4724 128.004 39.5324 128.201 39.665C128.371 39.78 128.512 39.9728 128.609 40.2852L128.647 40.4268C128.708 40.6817 128.747 40.8669 128.759 41.002C128.766 41.0703 128.762 41.1109 128.759 41.1328C128.745 41.1344 128.724 41.1383 128.693 41.1367C128.581 41.1312 128.409 41.0961 128.152 41.0225H128.153C127.728 40.8992 127.495 40.7413 127.359 40.5439C127.22 40.3422 127.151 40.0546 127.154 39.6035V39.5371L127.309 39.5195ZM108.46 30.5479C108.678 30.5684 108.909 30.6158 109.009 30.6406V30.6416C109.39 30.74 109.611 30.8862 109.739 31.0684C109.86 31.2409 109.925 31.483 109.921 31.8359C109.852 31.9465 109.807 31.9873 109.765 32.0098C109.711 32.0387 109.623 32.0602 109.417 32.0654H109.415C109.02 32.0778 108.736 31.8718 108.536 31.5381C108.363 31.2501 108.267 30.8828 108.239 30.541C108.3 30.5388 108.376 30.5399 108.46 30.5479Z" fill="#EFEFEF" stroke="#EFEFEF" stroke-width="0.54025"/>
<mask id="path-9-inside-3_1_756" fill="white">
<path d="M127.354 45.4421C126.787 45.7339 127.327 45.5448 126.787 45.8419C127.278 45.8419 127.57 46.0796 127.651 46.5875C127.813 47.6248 127.116 48.0137 126.392 48.5432C125.717 47.5275 125.614 46.4848 126.787 45.8419C126.208 45.8473 126.543 45.7339 125.917 45.7825"/>
</mask>
<path d="M127.354 45.4421C126.787 45.7339 127.327 45.5448 126.787 45.8419C127.278 45.8419 127.57 46.0796 127.651 46.5875C127.813 47.6248 127.116 48.0137 126.392 48.5432C125.717 47.5275 125.614 46.4848 126.787 45.8419C126.208 45.8473 126.543 45.7339 125.917 45.7825" fill="#EFEFEF"/>
<path d="M127.651 46.5875L128.185 46.5041L128.184 46.5023L127.651 46.5875ZM126.392 48.5432L125.942 48.8423L126.255 49.3127L126.711 48.9793L126.392 48.5432ZM127.354 45.4421L127.107 44.9617C126.966 45.034 126.857 45.0948 126.779 45.1524C126.74 45.1814 126.673 45.2358 126.617 45.3208C126.544 45.431 126.529 45.534 126.524 45.5713C126.523 45.5806 126.53 45.4929 126.58 45.4019C126.621 45.3271 126.669 45.2871 126.677 45.2809C126.687 45.2722 126.661 45.2943 126.526 45.3686L126.787 45.8419L127.047 46.3153C127.182 46.241 127.291 46.1753 127.37 46.1094C127.412 46.0745 127.477 46.0136 127.527 45.9217C127.555 45.872 127.573 45.8226 127.584 45.7761C127.593 45.7376 127.597 45.7005 127.596 45.7087C127.593 45.7328 127.58 45.8228 127.518 45.9162C127.473 45.9844 127.426 46.0184 127.424 46.0194C127.422 46.0211 127.458 45.9962 127.601 45.9226L127.354 45.4421ZM126.787 45.8419V46.3822C126.947 46.3822 127.004 46.4202 127.023 46.4358C127.041 46.4512 127.09 46.5036 127.117 46.6726L127.651 46.5875L128.184 46.5023C128.13 46.1635 127.994 45.8432 127.723 45.6127C127.452 45.3825 127.117 45.3017 126.787 45.3017V45.8419ZM127.651 46.5875L127.117 46.6709C127.174 47.0318 127.086 47.2328 126.939 47.4097C126.75 47.6365 126.478 47.8113 126.073 48.1071L126.392 48.5432L126.711 48.9793C127.031 48.7456 127.469 48.4612 127.769 48.1018C128.11 47.6926 128.29 47.1804 128.185 46.5041L127.651 46.5875ZM126.392 48.5432L126.842 48.2441C126.535 47.7825 126.412 47.3904 126.435 47.0947C126.455 46.8424 126.588 46.5672 127.046 46.3156L126.787 45.8419L126.527 45.3682C125.813 45.7596 125.411 46.3271 125.358 47.0108C125.308 47.6511 125.574 48.2882 125.942 48.8423L126.392 48.5432ZM126.787 45.8419L126.781 45.3017C126.651 45.3029 126.596 45.297 126.576 45.294C126.568 45.2927 126.579 45.2958 126.536 45.2819C126.366 45.227 126.207 45.2181 125.875 45.2439L125.917 45.7825L125.959 46.3211C126.107 46.3096 126.176 46.3097 126.205 46.3114C126.217 46.3121 126.217 46.3128 126.21 46.3114C126.202 46.3098 126.197 46.3079 126.204 46.3101C126.228 46.3178 126.303 46.3452 126.413 46.3621C126.513 46.3774 126.633 46.3836 126.792 46.3822L126.787 45.8419Z" fill="#EFEFEF" mask="url(#path-9-inside-3_1_756)"/>
<mask id="path-11-inside-4_1_756" fill="white">
<path d="M118.208 31.4118C118.208 31.4118 118.58 31.7252 118.769 32.0547C118.742 31.2011 119.05 30.7257 119.882 30.5096C120.098 30.4556 120.871 30.3043 121.001 30.4826C120.995 31.3362 120.574 32.4977 119.537 32.4653C119.11 32.4545 118.958 32.3735 118.775 32.0547"/>
</mask>
<path d="M118.208 31.4118C118.208 31.4118 118.58 31.7252 118.769 32.0547C118.742 31.2011 119.05 30.7257 119.882 30.5096C120.098 30.4556 120.871 30.3043 121.001 30.4826C120.995 31.3362 120.574 32.4977 119.537 32.4653C119.11 32.4545 118.958 32.3735 118.775 32.0547" fill="#EFEFEF"/>
<path d="M118.769 32.0547L118.301 32.3236L119.309 32.0376L118.769 32.0547ZM119.882 30.5096L119.751 29.9854L119.746 29.9867L119.882 30.5096ZM121.001 30.4826L121.541 30.486L121.542 30.3084L121.438 30.1648L121.001 30.4826ZM119.537 32.4653L119.553 31.9253L119.55 31.9252L119.537 32.4653ZM118.208 31.4118C117.86 31.8254 117.86 31.8253 117.86 31.8253C117.86 31.8253 117.86 31.8252 117.86 31.8252C117.86 31.8251 117.86 31.8251 117.86 31.8251C117.859 31.825 117.859 31.8249 117.859 31.8249C117.859 31.8248 117.859 31.8247 117.859 31.8248C117.859 31.8249 117.86 31.8253 117.861 31.8259C117.862 31.8272 117.865 31.8296 117.869 31.8331C117.877 31.84 117.889 31.8509 117.905 31.8653C117.937 31.8943 117.981 31.9365 118.031 31.9873C118.136 32.0949 118.24 32.2174 118.301 32.3236L118.769 32.0547L119.238 31.7858C119.11 31.5625 118.932 31.3635 118.804 31.232C118.737 31.1634 118.676 31.1066 118.633 31.0665C118.61 31.0464 118.592 31.0303 118.579 31.0188C118.572 31.013 118.567 31.0083 118.563 31.0049C118.561 31.0032 118.559 31.0018 118.558 31.0007C118.557 31.0001 118.557 30.9996 118.556 30.9992C118.556 30.999 118.556 30.9988 118.556 30.9987C118.556 30.9986 118.555 30.9985 118.555 30.9984C118.555 30.9984 118.555 30.9984 118.555 30.9983C118.555 30.9983 118.555 30.9983 118.208 31.4118ZM118.769 32.0547L119.309 32.0376C119.298 31.6712 119.362 31.4729 119.446 31.3539C119.525 31.2408 119.678 31.1209 120.018 31.0325L119.882 30.5096L119.746 29.9867C119.255 30.1143 118.838 30.3402 118.562 30.7323C118.29 31.1185 118.214 31.5846 118.229 32.0718L118.769 32.0547ZM119.882 30.5096L120.013 31.0337C120.102 31.0115 120.322 30.9659 120.525 30.9468C120.628 30.9371 120.702 30.9367 120.744 30.9412C120.765 30.9434 120.758 30.9449 120.733 30.9358C120.713 30.928 120.632 30.8947 120.564 30.8003L121.001 30.4826L121.438 30.1648C121.336 30.0259 121.203 29.9583 121.115 29.9249C121.023 29.8902 120.932 29.8746 120.859 29.8668C120.713 29.8512 120.556 29.8586 120.423 29.8711C120.153 29.8966 119.878 29.9537 119.751 29.9855L119.882 30.5096ZM121.001 30.4826L120.46 30.4792C120.458 30.8336 120.367 31.2369 120.192 31.5284C120.027 31.8031 119.825 31.9338 119.553 31.9253L119.537 32.4653L119.52 33.0053C120.286 33.0292 120.812 32.5954 121.119 32.084C121.415 31.5894 121.538 30.9851 121.541 30.486L121.001 30.4826ZM119.537 32.4653L119.55 31.9252C119.354 31.9202 119.317 31.898 119.321 31.8998C119.337 31.9088 119.316 31.9114 119.243 31.785L118.775 32.0547L118.307 32.3245C118.417 32.5167 118.563 32.7193 118.808 32.8512C119.04 32.9759 119.293 32.9995 119.523 33.0054L119.537 32.4653Z" fill="#EFEFEF" mask="url(#path-11-inside-4_1_756)"/>
<path d="M113.556 22.9191H104.366L94.3066 40.3367L104.366 57.7598H124.48L134.539 40.3367L124.48 22.9191H122.837" stroke="#EFEFEF" stroke-width="0.837879" stroke-miterlimit="10"/>
<path d="M114.264 22.9136H115.96" stroke="#EFEFEF" stroke-width="1.0805" stroke-miterlimit="10"/>
<path d="M53.3198 31.2617C54.1103 32.7278 54.1542 34.6643 53.8569 36.3281C53.6782 37.3133 53.2991 38.2683 52.8384 39.2236C52.3702 40.1945 51.8482 41.1096 51.3521 42.0957C50.38 44.0276 49.5979 46.0686 50.1538 48.3799L50.1958 48.5537L50.3726 48.583C50.4318 48.5929 50.5009 48.6009 50.5649 48.5938C50.5998 48.5898 50.6495 48.5796 50.6997 48.5498C50.7555 48.5167 50.7955 48.4695 50.8198 48.418C50.841 48.3732 50.8469 48.3322 50.8491 48.3145C50.8502 48.3053 50.8497 48.297 50.8501 48.292C50.9126 48.1642 50.9597 48.0229 50.9985 47.9053C51.0207 47.838 51.0417 47.7767 51.063 47.7207L51.1304 47.5684C51.8417 46.2416 53.0612 45.2156 54.4224 44.2598C55.7631 43.3183 57.269 42.4293 58.438 41.416L58.647 41.2354L58.4614 41.0303C56.578 38.9575 57.0045 36.126 58.7915 34.1006C58.8351 34.1355 58.8893 34.1844 58.9497 34.248C59.029 34.3316 59.1037 34.4187 59.1812 34.5049C59.184 34.5081 59.187 34.5114 59.1899 34.5146C58.4709 35.3537 57.9645 36.3768 57.8394 37.4229C57.7033 38.5609 58.0212 39.7186 58.9907 40.665L59.1528 40.8232L59.3374 40.6914C60.0169 40.2038 60.8204 39.6547 61.4565 38.9893C62.0386 38.3803 62.4989 37.6535 62.6079 36.7568L63.1616 36.7969L62.9536 37.7822L62.2485 39.0537L61.8706 39.4033C59.8543 41.2641 57.5564 42.7538 55.314 44.3975L55.2085 44.4746L55.2036 44.6045C55.2001 44.693 55.2376 44.7582 55.2642 44.793C55.2906 44.8275 55.3204 44.8509 55.3394 44.8643C55.3774 44.8909 55.4191 44.9104 55.4517 44.9238C55.5206 44.9522 55.61 44.9794 55.7046 45.0049C55.8971 45.0566 56.1522 45.1109 56.4077 45.1611C56.9178 45.2615 57.4582 45.3495 57.5728 45.3643H57.5767C59.2985 45.5607 61.1983 45.3913 62.8394 44.7354L63.1636 44.5977C63.648 44.3818 64.0904 44.086 64.5083 43.8125L64.8589 44.3232C62.0774 46.1711 58.8719 46.2747 55.5991 45.5879L55.3101 45.5137C55.223 45.4867 55.144 45.4574 55.0688 45.4297C54.9263 45.3772 54.77 45.316 54.6147 45.2881C54.4443 45.2575 54.2709 45.2654 54.0767 45.3379C53.9377 45.3897 53.7934 45.4719 53.6353 45.5869L53.4722 45.7129C52.4456 46.5422 51.788 47.4197 51.4419 48.3252C51.0952 49.2323 51.0679 50.1503 51.2739 51.0479C51.6577 52.7196 52.8509 54.3213 54.3013 55.7031L54.5942 55.9766C54.762 56.1299 55.2619 56.5221 55.7183 56.8662C55.9187 57.0173 56.1157 57.1608 56.2769 57.2754L55.4819 57.7246C52.6526 55.8928 50.9512 52.838 49.9341 49.6338L49.645 48.7227L49.4146 49.6504C49.0383 51.1661 48.0655 53.1603 46.9536 54.8125C46.3987 55.6371 45.815 56.3669 45.2632 56.9043C44.7453 57.4086 44.2872 57.7078 43.9292 57.7959L43.0698 57.2598C44.2961 56.3944 45.7111 55.1563 46.7388 53.7266C47.8561 52.1721 48.5509 50.3439 47.9673 48.5205C47.5401 47.1814 46.3025 46.009 45.2534 45.2549L45.144 45.1768L45.0161 45.2158C43.0924 45.8019 41.0671 46.0879 39.0581 45.9395C38.7681 45.9169 38.4465 45.8383 38.1001 45.7568C37.7907 45.6841 37.4566 45.6107 37.1509 45.5977C36.8769 45.4534 36.5862 45.3429 36.3101 45.2402C36.0086 45.1281 35.7242 45.0229 35.4585 44.8838H35.4565C35.3828 44.8457 35.1091 44.6858 34.8413 44.5215C34.7088 44.4401 34.5813 44.3596 34.4858 44.2959C34.4728 44.2872 34.4611 44.2783 34.4497 44.2705C34.4819 44.2142 34.5291 44.1449 34.5874 44.0684C34.6597 43.9734 34.7387 43.8771 34.8091 43.7969C37.4915 45.665 40.9218 45.7437 43.9517 44.9033L44.4751 44.7578L44.0435 44.4277L37.5503 39.4629L37.2251 39.2148L37.1274 39.084C36.5916 38.3663 36.2247 37.6351 36.147 36.7793L36.7114 36.7061C36.738 36.8162 36.7617 36.9297 36.7866 37.0527C36.8267 37.2502 36.874 37.4671 36.9614 37.6904V37.6914C37.2176 38.3408 37.7261 38.893 38.2651 39.3682C38.7955 39.8356 39.4177 40.2772 39.8687 40.6436L40.0327 40.7773L40.2017 40.6494C41.315 39.8034 41.6424 38.6341 41.4976 37.4746C41.3652 36.4152 40.8384 35.3603 40.1655 34.5234L40.5757 34.1504C42.0576 35.9205 42.7092 38.2063 41.4204 40.2295V40.2305C41.3307 40.3721 41.2247 40.4888 41.1021 40.6328C40.9844 40.771 40.8545 40.9312 40.7573 41.1318L40.5698 41.5195H41.0005C41.0026 41.5199 41.0097 41.5217 41.0229 41.5283C41.0448 41.5393 41.0704 41.5572 41.1108 41.5869L41.1157 41.5898C42.1473 42.3122 43.5864 43.2374 44.9302 44.252C46.2732 45.2659 47.4663 46.3309 48.0249 47.3086L48.5952 48.5127L48.8882 49.1318L49.0962 48.4795C49.7842 46.3302 49.0577 44.4929 48.2319 42.6523C47.9001 41.9121 47.5351 41.2098 47.1812 40.5264C46.826 39.8406 46.4825 39.1739 46.1851 38.4932C45.5922 37.1361 45.1894 35.7353 45.2729 34.0732C45.2905 33.7459 45.3673 33.3985 45.4487 33.0303C45.5219 32.6994 45.5971 32.347 45.6177 32.0137C45.7523 31.7711 45.8582 31.5191 45.9487 31.2676L46.481 31.5586C45.5795 33.4938 45.7228 35.31 46.2837 37.04C46.859 38.8144 47.8961 40.5525 48.6763 42.208L48.6772 42.21C48.6906 42.2378 48.7377 42.3539 48.811 42.5312C48.8816 42.7021 48.971 42.9175 49.061 43.126C49.1505 43.333 49.2433 43.5391 49.3208 43.6904C49.3585 43.764 49.3984 43.8352 49.436 43.8887C49.4526 43.9122 49.4821 43.9518 49.5229 43.9844C49.5428 44.0001 49.5853 44.0305 49.647 44.0439C49.7221 44.0602 49.8124 44.0472 49.8862 43.9863L49.9429 43.9404L49.9683 43.8711C50.3293 42.8861 50.8178 41.9096 51.3208 40.916C51.8213 39.9274 52.3364 38.9209 52.7368 37.8975C53.5156 35.9068 53.8696 33.8154 52.855 31.5576L53.3198 31.2617ZM37.0073 46.1367C37.4817 46.4162 37.6678 46.7493 37.6948 47.0957C37.7195 47.4136 37.612 47.7795 37.3921 48.1729C37.1175 47.9768 36.8875 47.8098 36.7183 47.6064C36.5222 47.3708 36.4122 47.0902 36.481 46.6504L36.48 46.6494C36.5139 46.4388 36.5862 46.3185 36.6675 46.249C36.739 46.1879 36.8451 46.1449 37.0073 46.1367ZM36.0728 39.6602C36.2667 39.5287 36.529 39.4657 36.8745 39.5127L37.103 39.543L37.1167 39.7002C37.1541 40.142 36.9669 40.4967 36.6567 40.749C36.355 40.9945 35.9397 41.1361 35.5249 41.1445C35.5167 41.1017 35.5102 41.0359 35.5151 40.9463C35.5277 40.7186 35.5919 40.4555 35.6235 40.3506L35.6245 40.3467C35.7197 40.0159 35.8774 39.7926 36.0728 39.6602ZM62.479 39.5195C62.8912 39.4724 63.1739 39.5324 63.3706 39.665C63.5409 39.78 63.6822 39.9728 63.7788 40.2852L63.8169 40.4268C63.8779 40.6817 63.9167 40.8669 63.9292 41.002C63.9355 41.0703 63.932 41.1109 63.9292 41.1328C63.9152 41.1344 63.8941 41.1383 63.8628 41.1367C63.7506 41.1312 63.579 41.0961 63.3218 41.0225H63.3228C62.8978 40.8992 62.6647 40.7413 62.5288 40.5439C62.39 40.3422 62.3212 40.0546 62.3237 39.6035V39.5371L62.479 39.5195ZM43.6304 30.5479C43.848 30.5684 44.0793 30.6158 44.1792 30.6406V30.6416C44.5603 30.74 44.7804 30.8862 44.9087 31.0684C45.03 31.2409 45.0951 31.483 45.0913 31.8359C45.022 31.9465 44.977 31.9873 44.9351 32.0098C44.8809 32.0387 44.7926 32.0602 44.5864 32.0654H44.5845C44.1897 32.0778 43.9058 31.8718 43.7056 31.5381C43.5329 31.2501 43.4367 30.8828 43.4087 30.541C43.4699 30.5388 43.5455 30.5399 43.6304 30.5479Z" fill="#EFEFEF" stroke="#EFEFEF" stroke-width="0.54025"/>
<path d="M62.5183 45.4421C61.9511 45.7339 62.4913 45.5448 61.9511 45.8419C62.4427 45.8419 62.7344 46.0796 62.8155 46.5875C62.9775 47.6248 62.2806 48.0137 61.5567 48.5432C60.8814 47.5275 60.7787 46.4848 61.9511 45.8419C61.373 45.8473 61.708 45.7339 61.0813 45.7825" fill="#EFEFEF"/>
<path d="M53.3774 31.4118C53.3774 31.4118 53.7502 31.7252 53.9393 32.0547C53.9123 31.2011 54.2202 30.7257 55.0522 30.5096C55.2683 30.4556 56.0409 30.3043 56.1705 30.4826C56.1651 31.3362 55.7437 32.4977 54.7065 32.4653C54.2797 32.4545 54.1284 32.3735 53.9447 32.0547" fill="#EFEFEF"/>
<path d="M37.9369 25.6797L39.5306 22.9191H59.6496L69.7036 40.3367L59.6496 57.7598H39.5306L29.4712 40.3367L34.1335 32.1519" stroke="#EFEFEF" stroke-width="0.837879" stroke-miterlimit="10"/>
<path d="M34.5986 31.3252L35.3064 30.1205" stroke="#EFEFEF" stroke-width="1.0805" stroke-miterlimit="10"/>
</g>
<defs>
<clipPath id="clip0_1_756">
<rect width="106.31" height="55.3" fill="white" transform="translate(28.8501 3)"/>
</clipPath>
</defs>
</svg>
