<svg width="164" height="67" viewBox="0 0 164 67" fill="none" xmlns="http://www.w3.org/2000/svg">
<g clip-path="url(#clip0_1_744)">
<g clip-path="url(#clip1_1_744)">
<path d="M113.086 51.8848L113.562 53.4502H57.0503V51.8848H113.086Z" fill="#EFEFEF" stroke="#EFEFEF" stroke-width="0.420334"/>
<path d="M82.7056 55.4883L82.6997 57.0498H51.5435L51.8608 55.4883H82.7056Z" fill="#EFEFEF" stroke="#EFEFEF" stroke-width="0.420334"/>
<path d="M113.479 55.4883L113.425 57.0498H108.533V55.4883H113.479Z" fill="#EFEFEF" stroke="#EFEFEF" stroke-width="0.420334"/>
<path d="M59.5438 34.7366C60.0829 34.3857 60.6947 34.1888 61.345 34.1888C63.5356 34.1888 65.3111 36.4527 65.3111 39.2472C65.3111 42.0417 63.5356 44.3056 61.345 44.3056C59.1545 44.3056 57.3789 42.0417 57.3789 39.2472C57.3789 38.601 57.473 37.9805 57.6484 37.4113" stroke="#EFEFEF" stroke-width="0.840668" stroke-miterlimit="10"/>
<path d="M103.021 57.572H113.572V51.5764H51.4277V57.572H84.4701" stroke="#EFEFEF" stroke-width="0.840668" stroke-miterlimit="10"/>
<path d="M113.568 53.7419H51.4277V55.2612H113.568V53.7419Z" stroke="#EFEFEF" stroke-width="0.840668" stroke-miterlimit="10"/>
<path d="M70.8303 51.5251H52.3047C52.3047 47.0273 53.8877 47.7934 56.1125 46.5181C57.4474 45.7521 58.9363 44.4254 60.669 44.4254H62.4617C64.1945 44.4254 65.5336 45.9404 66.8685 46.7064C67.2065 46.899 67.5274 47.053 67.8311 47.1857C68.3488 47.4125 68.8195 47.5837 69.2216 47.8105C70.1501 48.3283 70.7405 49.1286 70.826 51.5251H70.8303Z" stroke="#EFEFEF" stroke-width="0.840668" stroke-miterlimit="10"/>
<path d="M85.2917 42.6495C84.5644 43.6638 83.5205 44.3014 82.3567 44.3014C80.1662 44.3014 78.3906 42.0376 78.3906 39.2431C78.3906 36.4485 80.1662 34.1847 82.3567 34.1847C84.5473 34.1847 86.3228 36.4485 86.3228 39.2431" stroke="#EFEFEF" stroke-width="0.840668" stroke-miterlimit="10"/>
<path d="M91.8464 51.5251H73.3208C73.3208 47.0273 74.9038 47.7934 77.1286 46.5181C78.4635 45.7521 79.9524 44.4254 81.6851 44.4254H83.4778C85.2106 44.4254 86.5497 45.9404 87.8846 46.7064C90.1094 47.9817 91.6924 47.4681 91.8422 51.5208L91.8464 51.5251Z" stroke="#EFEFEF" stroke-width="0.840668" stroke-miterlimit="10"/>
<path d="M99.4062 40.9591C99.2565 40.4242 99.1709 39.8465 99.1709 39.2431C99.1709 36.4485 100.946 34.1847 103.137 34.1847C105.328 34.1847 107.103 36.4485 107.103 39.2431C107.103 42.0376 105.328 44.3014 103.137 44.3014" stroke="#EFEFEF" stroke-width="0.840668" stroke-miterlimit="10"/>
<path d="M112.627 51.5251H94.1011C94.1011 47.0273 95.6841 47.7934 97.9089 46.5181C99.2438 45.7521 100.733 44.4254 102.465 44.4254H104.258C105.991 44.4254 107.33 45.9404 108.665 46.7064C110.89 47.9817 112.473 47.4681 112.622 51.5208L112.627 51.5251Z" stroke="#EFEFEF" stroke-width="0.840668" stroke-miterlimit="10"/>
<path d="M65.8633 25.4031H63.5059V27.1192H65.8633V25.4031Z" fill="#EFEFEF"/>
<path d="M103.043 25.4031H99.8682V27.1192H103.043V25.4031Z" fill="#EFEFEF"/>
<path d="M94.9951 27.1193H90.4771L90.5327 25.4075H94.948L94.9951 27.1193Z" fill="#EFEFEF"/>
<path d="M75.1518 27.1193H70.6338L70.6937 25.4075H75.1048L75.1518 27.1193Z" fill="#EFEFEF"/>
<path d="M79.8411 21.6328V30.7909H65.3843" stroke="#EFEFEF" stroke-width="0.840668" stroke-miterlimit="10"/>
<path d="M85.7021 3.1155V0.427979H79.8407V5.7046H74.4541V11.2337H79.8407V12.6973" stroke="#EFEFEF" stroke-width="0.840668" stroke-miterlimit="10"/>
<path d="M91.0202 30.7909H85.7021V11.2336H91.0887V5.70452H85.7021V4.85291" stroke="#EFEFEF" stroke-width="0.840668" stroke-miterlimit="10"/>
<path d="M61.4438 24.5943V23.3917H65.7651V30.8295" stroke="#EFEFEF" stroke-width="0.840668" stroke-miterlimit="10"/>
<path d="M61.4438 30.8295V26.5328" stroke="#EFEFEF" stroke-width="0.840668" stroke-miterlimit="10"/>
<path d="M74.9722 29.6997V30.8295" stroke="#EFEFEF" stroke-width="0.840668" stroke-miterlimit="10"/>
<path d="M70.6509 30.8295V23.3917H74.9721V27.7868" stroke="#EFEFEF" stroke-width="0.840668" stroke-miterlimit="10"/>
<path d="M93.1167 23.3917H94.9479V30.8295" stroke="#EFEFEF" stroke-width="0.840668" stroke-miterlimit="10"/>
<path d="M90.6313 30.8295V23.3917H91.4485" stroke="#EFEFEF" stroke-width="0.840668" stroke-miterlimit="10"/>
<path d="M104.134 24.7954V25.6214V30.8295" stroke="#EFEFEF" stroke-width="0.840668" stroke-miterlimit="10"/>
<path d="M99.8125 30.8295V23.3917H102.893" stroke="#EFEFEF" stroke-width="0.840668" stroke-miterlimit="10"/>
<path d="M63.7157 21.9195C60.9946 21.9195 63.7157 16.8098 63.7157 16.8098C63.7157 16.8098 66.21 21.9195 63.7157 21.9195Z" stroke="#EFEFEF" stroke-width="0.840668" stroke-miterlimit="10"/>
<path d="M72.7133 21.9195C69.9922 21.9195 72.7133 16.8098 72.7133 16.8098C72.7133 16.8098 75.2076 21.9195 72.7133 21.9195Z" stroke="#EFEFEF" stroke-width="0.840668" stroke-miterlimit="10"/>
<path d="M92.809 21.9195C90.0879 21.9195 92.809 16.8098 92.809 16.8098C92.809 16.8098 95.3033 21.9195 92.809 21.9195Z" stroke="#EFEFEF" stroke-width="0.840668" stroke-miterlimit="10"/>
<path d="M101.807 21.9195C99.0855 21.9195 101.807 16.8098 101.807 16.8098C101.807 16.8098 104.301 21.9195 101.807 21.9195Z" stroke="#EFEFEF" stroke-width="0.840668" stroke-miterlimit="10"/>
<path d="M63.6812 23.2591V21.8811" stroke="#EFEFEF" stroke-width="0.840668" stroke-miterlimit="10"/>
<path d="M72.7002 21.8811V23.2591" stroke="#EFEFEF" stroke-width="0.840668" stroke-miterlimit="10"/>
<path d="M92.7617 21.8811V23.7769" stroke="#EFEFEF" stroke-width="0.840668" stroke-miterlimit="10"/>
<path d="M101.781 21.8811V23.2591" stroke="#EFEFEF" stroke-width="0.840668" stroke-miterlimit="10"/>
<path d="M103.274 23.396H104.519" stroke="#EFEFEF" stroke-width="0.840668" stroke-miterlimit="10"/>
<path d="M94.5674 30.791H107.779" stroke="#EFEFEF" stroke-width="0.840668" stroke-miterlimit="10"/>
<path d="M57.3535 30.791H61.8245" stroke="#EFEFEF" stroke-width="0.840668" stroke-miterlimit="10"/>
<path d="M79.8364 20.61V21.3161" stroke="#EFEFEF" stroke-width="0.840668" stroke-miterlimit="10"/>
</g>
</g>
<defs>
<clipPath id="clip0_1_744">
<rect width="163" height="66" fill="white" transform="translate(0.899902 0.0500488)"/>
</clipPath>
<clipPath id="clip1_1_744">
<rect width="63" height="58" fill="white" transform="translate(51)"/>
</clipPath>
</defs>
</svg>
