<svg width="163" height="67" viewBox="0 0 163 67" fill="none" xmlns="http://www.w3.org/2000/svg">
<g clip-path="url(#clip0_1_738)">
<g clip-path="url(#clip1_1_738)">
<path d="M109.598 25.1538C111.259 26.1966 112.876 27.4212 114.408 28.86C114.767 29.1955 114.525 29.8018 114.032 29.8018H84.3659C83.8203 29.8018 83.3717 29.3774 83.3394 28.8358L84.5074 20.5018C84.6489 19.835 84.8469 19.6329 85.3279 19.5965C88.9815 19.3176 95.2866 19.4025 101.866 21.5608" stroke="#EFEFEF" stroke-width="0.808336" stroke-miterlimit="10"/>
<path d="M22.4233 15.1386C22.5647 14.3019 23.0861 13.7967 24.0157 13.7078C48.0152 11.396 64.2789 11.978 81.1651 19.4753C81.4278 19.5925 81.5773 19.8714 81.5288 20.1543C81.2419 21.8801 80.3972 26.6614 80.0011 28.7994C79.892 29.3774 79.3867 29.7977 78.8007 29.7977H22.1484C21.0895 29.7977 20.2165 29.1309 20.1519 28.274L20.7136 24.0343" stroke="#EFEFEF" stroke-width="0.808336" stroke-miterlimit="10"/>
<path d="M110.819 49.4403C114.982 49.412 118.987 49.3797 122.762 49.3473C122.617 48.636 122.536 47.9004 122.536 47.1487C122.536 41.1751 127.378 36.3331 133.351 36.3331C139.325 36.3331 144.167 41.1751 144.167 47.1487C144.167 47.8277 144.102 48.4945 143.981 49.1372C149.296 49.0765 152.436 49.0361 152.436 49.0361C153.325 47.282 154.126 44.9742 153.156 43.2727C152.574 42.2461 151.179 42.3957 150.722 41.2923C149.643 38.6813 148.742 34.8983 147.57 33.8152C145.189 32.1338 141.212 30.986 136.904 30.2019C133.363 29.5552 129.601 29.1551 126.311 28.9086C122.701 28.6378 119.666 28.5448 118.122 28.5165C117.435 28.5044 116.78 28.2417 116.279 27.7728C104.676 16.8926 89.8547 17.3332 85.4331 17.7495C84.6449 17.8222 82.9838 17.4908 82.2523 17.1917C70.4263 12.374 57.0888 10.3855 45.4164 10.4542C35.0737 10.5189 30.9431 11.0847 22.2212 12.0062C21.5987 12.0709 21.041 12.3862 20.6692 12.8631C20.4711 13.1137 20.3782 13.344 20.358 13.3966C19.8244 14.7061 14.9663 20.3604 12.8849 24.5597C9.94658 30.4848 9.02507 40.6173 9.00486 40.9568C9.00082 41.0336 8.9887 41.4216 8.74215 41.7975C8.68153 41.8904 8.60878 41.9794 8.52795 42.0602C8.03082 42.5573 7.6994 43.1919 7.57411 43.883C7.46094 44.5135 7.44882 44.6064 7.44882 44.6064C7.39627 45.0187 7.37202 45.5562 7.46902 46.215C7.58623 47.0274 8.17632 47.6862 8.96445 47.9206C13.1193 49.1533 20.9602 49.5656 32.1031 49.6707C31.9091 48.8583 31.804 48.0136 31.804 47.1446C31.804 41.171 36.6459 36.3291 42.6195 36.3291C48.5931 36.3291 53.4351 41.171 53.4351 47.1446C53.4351 48.0095 53.33 48.8462 53.14 49.6505C59.8654 49.6141 67.2415 49.5696 75.24 49.5696" stroke="#EFEFEF" stroke-width="0.808336" stroke-miterlimit="10"/>
<path d="M42.6637 56.0727C47.4629 56.0727 51.3534 52.1822 51.3534 47.3831C51.3534 42.584 47.4629 38.6935 42.6637 38.6935C37.8646 38.6935 33.9741 42.584 33.9741 47.3831C33.9741 52.1822 37.8646 56.0727 42.6637 56.0727Z" stroke="#EFEFEF" stroke-width="0.808336" stroke-miterlimit="10"/>
<path d="M133.347 56.0727C138.146 56.0727 142.036 52.1822 142.036 47.3831C142.036 42.584 138.146 38.6935 133.347 38.6935C128.548 38.6935 124.657 42.584 124.657 47.3831C124.657 52.1822 128.548 56.0727 133.347 56.0727Z" stroke="#EFEFEF" stroke-width="0.808336" stroke-miterlimit="10"/>
<path d="M25.9069 27.6596H76.5168V21.0717C75.466 19.8713 74.8799 19.1964 73.8291 17.9919L27.2891 19.6612L25.9028 21.779V27.6596H25.9069Z" stroke="#EFEFEF" stroke-width="0.808336" stroke-miterlimit="10"/>
<path d="M53.1358 20.5342H52.3032V26.0592H53.1358V20.5342Z" fill="#EFEFEF"/>
<path d="M54.5103 22.5429V21.7103H50.9253V22.5429H54.5103Z" fill="#EFEFEF"/>
<path d="M135.699 44.8167C136.395 45.4512 136.827 46.3687 136.827 47.3831C136.827 49.307 135.267 50.863 133.347 50.863C131.427 50.863 129.867 49.3029 129.867 47.3831" stroke="#EFEFEF" stroke-width="0.808336" stroke-miterlimit="10"/>
<path d="M44.9552 44.8167C45.6504 45.4512 46.0828 46.3687 46.0828 47.3831C46.0828 49.307 44.5227 50.863 42.6029 50.863C40.6831 50.863 39.123 49.3029 39.123 47.3831" stroke="#EFEFEF" stroke-width="0.808336" stroke-miterlimit="10"/>
<path d="M76.4727 49.5737H78.5824" stroke="#EFEFEF" stroke-width="0.808336" stroke-miterlimit="10"/>
<path d="M22.1926 16.1005L21.8208 17.9233" stroke="#EFEFEF" stroke-width="0.808336" stroke-miterlimit="10"/>
<path d="M108.406 24.4303L109.105 24.8628" stroke="#EFEFEF" stroke-width="0.808336" stroke-miterlimit="10"/>
</g>
</g>
<defs>
<clipPath id="clip0_1_738">
<rect width="163" height="66" fill="white" transform="translate(0 0.0500488)"/>
</clipPath>
<clipPath id="clip1_1_738">
<rect width="147" height="46.4228" fill="white" transform="translate(7 10.05)"/>
</clipPath>
</defs>
</svg>
