<svg width="50" height="41" viewBox="0 0 50 41" fill="none" xmlns="http://www.w3.org/2000/svg">
<g clip-path="url(#clip0_1_5942)">
<path d="M49.716 40.7492C39.2871 40.7001 28.8529 40.8117 18.4226 40.7559C18.052 40.7532 17.7331 40.6416 17.3717 40.611C11.7853 40.4476 6.062 40.8475 0.492823 40.6164C0.329414 40.6097 -6.05192e-05 40.7173 0.0291671 40.4835H5.80826C6.07263 40.4835 5.8707 39.9415 5.86804 39.7608C5.80825 35.73 5.92649 31.694 5.87601 27.6619C5.80958 27.3152 5.09749 27.0149 4.81319 26.7319C2.84564 24.7737 3.41691 21.6131 5.56513 20.0468C6.58677 19.3015 6.82059 19.2444 7.52338 20.3005C9.12558 22.7105 8.94225 25.9215 6.27058 27.4241L6.26527 40.4197L38.3465 40.3573C38.7504 40.2882 38.4209 35.3913 38.6228 34.7682C38.8301 36.6188 38.5152 38.512 38.8221 40.3493H42.542V26.9976C42.542 26.8754 41.1577 25.4207 40.9518 25.1337C40.7897 24.9079 40.4124 24.5253 40.6156 24.2742L42.542 26.3998V24.5399H42.8077V28.7912L44.6703 26.336L45.0675 26.2019C44.9586 26.813 42.8077 29.0887 42.8077 29.389V40.3493H49.716V40.7479V40.7492ZM6.37421 19.9153C5.85077 20.0455 4.88759 21.1256 4.59531 21.6025C3.72645 23.02 3.61884 24.4867 4.56741 25.9149C5.59702 27.464 6.5044 27.3125 7.52604 25.8618C8.52376 24.4442 8.3205 22.6401 7.62568 21.1295C7.41577 20.6752 6.93484 19.7771 6.37421 19.9153Z" fill="#484846"/>
<path d="M33.1096 0.228516V19.4284L32.8439 19.625V0.494221H19.5586V6.73829C19.2477 6.75556 19.3234 6.78346 19.2929 6.54167C19.0471 4.61797 19.4762 2.20669 19.2929 0.228516H33.1096Z" fill="#484846"/>
<path d="M20.4879 9.2627V40.0181C20.4879 40.1044 20.2036 40.2731 20.0894 40.2174V9.79411L11.4539 13.049V28.792L11.0527 28.7136L11.2015 12.5973L20.4879 9.2627Z" fill="#484846"/>
<path d="M43.0761 19.2267C44.8882 17.9606 47.4456 19.1669 47.6927 21.3231C47.7379 21.719 47.5107 22.5055 47.6103 22.6609C47.6382 22.7048 48.2892 22.9226 48.527 23.1392C49.6523 24.1622 49.6895 25.9557 48.7861 27.1301C48.5509 27.4356 47.8614 27.8422 47.783 27.9936C47.6821 28.1902 47.965 28.8678 47.9531 29.2212C47.8986 30.85 46.1755 32.318 44.5348 31.9792C44.5056 31.6351 44.5135 31.7573 44.7341 31.7175C45.8381 31.5195 46.5847 31.4279 47.2184 30.3464C48.0049 29.0046 47.2011 28.5503 47.3141 27.8143C47.322 27.7598 47.9797 27.3958 48.1218 27.2643C49.2643 26.2068 49.4384 24.5142 48.2573 23.4062C48.0062 23.1711 47.3074 22.9001 47.2503 22.8177C47.0683 22.556 47.3406 21.9355 47.334 21.5516C47.2968 19.3994 44.7022 18.4282 43.0189 19.6133C42.2032 17.954 39.9275 17.3814 38.6295 18.8348C37.7022 19.8737 37.9466 21.1012 38.4222 22.281C35.17 22.3926 35.0744 27.0583 38.2894 27.3307C38.2814 27.89 37.7633 28.1716 37.6557 28.7562C37.3063 30.6547 38.4847 32.0935 40.415 31.9805V32.3778C38.5445 32.5146 37.0552 30.9894 37.2252 29.1229C37.2771 28.5529 37.5813 28.1119 37.758 27.5977C34.7661 26.9242 34.8684 22.4988 37.8922 22.0166C37.8961 21.6101 37.6663 21.2978 37.6251 20.8887C37.3049 17.6789 41.701 16.3212 43.0761 19.2267Z" fill="#484846"/>
<path d="M15.9708 19.4922V40.0179C15.9708 40.1043 15.6865 40.273 15.5723 40.2172V19.4922H15.9708Z" fill="#484846"/>
<path d="M25.0064 20.1562V40.217L24.6305 39.9951C24.5919 33.4601 24.5919 26.9131 24.6305 20.3794L25.0064 20.1576V20.1562Z" fill="#484846"/>
<path d="M29.2578 21.2191L32.9777 22.0175C33.0255 22.359 32.9378 22.2952 32.6588 22.27C31.7395 22.1889 30.4641 21.6721 29.5235 21.4835V40.2157H29.2578V21.2178V21.2191Z" fill="#484846"/>
<path d="M25.006 5.67514V16.9676H24.6074V5.87442C24.6074 5.78807 24.8917 5.61934 25.006 5.67514Z" fill="#484846"/>
<path d="M8.26729 38.4891C8.26464 37.971 8.97806 38.0919 9.36864 37.9311C11.0545 37.2403 12.0948 35.0854 11.8543 33.3078C11.3774 33.4088 10.9044 33.1657 10.466 33.171C9.84691 33.179 9.05511 33.547 8.46392 33.5749C8.2394 33.5855 8.13444 33.442 8.26729 33.3105C8.66718 32.9093 11.6723 32.7259 12.1213 33.1086C12.3778 33.3264 12.2502 34.2856 12.1931 34.6443C11.8928 36.5295 10.2986 38.501 8.26729 38.4891Z" fill="#484846"/>
<path d="M0.427811 30.1873C0.670931 31.7443 1.93569 32.7726 3.30407 33.2894C4.02546 33.5618 3.88464 33.8195 3.18317 33.676C1.04425 33.2389 -0.25638 30.4942 0.0425384 28.4695C0.187348 27.4878 2.19741 27.8943 2.9095 28.1042C3.3426 28.2317 3.66011 28.5572 3.03305 28.5134C2.22132 28.4562 1.32855 28.0763 0.427811 28.261C0.492909 28.8601 0.3388 29.6134 0.427811 30.1873Z" fill="#484846"/>
<path d="M15.9708 12.3184H15.5723V17.3668H15.9708V12.3184Z" fill="#484846"/>
<path d="M25.006 1.42417V4.47978H24.6074V1.62344C24.6074 1.53709 24.8917 1.36837 25.006 1.42417Z" fill="#484846"/>
</g>
<defs>
<clipPath id="clip0_1_5942">
<rect width="49.7161" height="40.5426" fill="white" transform="translate(0 0.228516)"/>
</clipPath>
</defs>
</svg>
