<svg width="44" height="41" viewBox="0 0 44 41" fill="none" xmlns="http://www.w3.org/2000/svg">
<g clip-path="url(#clip0_1_5960)">
<path d="M9.21068 0.373047C10.0293 0.703925 11.0544 1.22798 10.9282 2.28564C10.3563 2.26651 10.3028 1.57416 9.77298 1.24328C8.41504 0.395998 5.57102 1.11896 4.34313 2.10012C1.54692 4.33403 0.359204 8.27971 0.607841 11.7606C1.17971 19.7247 11.3566 30.5155 17.8231 34.6888C19.051 35.4806 20.6442 36.1137 21.7592 36.8672C22.6543 37.4716 22.2106 37.6017 21.3652 37.2612C14.126 34.3426 3.53793 23.1463 0.994185 15.7732C0.592541 14.6085 0.382156 13.4093 0.041714 12.2311C0.139256 11.1409 -0.09408 9.84803 0.041714 8.78845C0.401281 5.96738 2.58737 2.91488 4.75052 1.16486L7.11066 0.373047H9.21259H9.21068Z" fill="#484846"/>
<path d="M43.2132 30.592C43.1864 31.0319 43.2515 31.4929 43.2132 31.9308C42.8097 36.6244 39.6099 39.587 35.0388 40.4801C33.5871 40.7632 29.4961 40.658 28.251 39.9656C28.0349 39.8452 28.0903 39.4282 28.1248 39.39C28.2567 39.2389 31.3551 40.1091 32.0418 40.1512C37.0508 40.4648 42.3698 37.4257 42.6375 32.0227C42.7312 30.1311 42.5151 30.1521 40.9621 29.3068C39.0055 28.2415 35.8631 26.763 33.7918 25.9674C32.8833 25.6174 32.3918 25.3458 31.554 26.0879C30.6226 26.9122 28.4786 30.5748 27.5453 30.8636C26.4015 31.2175 25.1067 30.6666 24.1026 30.1215C23.8654 29.9934 23.5097 29.8767 23.5365 29.5401C24.8657 29.4062 26.1816 31.1505 27.4955 30.2669L31.2691 25.6136C32.3325 24.7758 33.0765 25.1584 34.1743 25.5849C35.6221 26.1472 41.9031 28.9816 42.7485 29.8155C42.9531 30.0163 42.9952 30.3855 43.2132 30.5939V30.592Z" fill="#484846"/>
<path d="M21.6254 28.1101C21.9811 28.5289 21.2715 28.5423 20.8718 28.3855C20.0092 28.0451 17.7198 26.1382 16.9414 25.4344C15.4515 24.0879 11.4924 19.601 11.02 17.7859C10.5476 15.9709 12.4965 14.9572 13.3802 13.6356C13.9731 12.7462 14.5315 11.9678 14.3231 10.8451C14.1835 10.0973 12.1542 6.46336 12.4583 6.11527C12.7777 5.74806 13.5427 7.69699 13.6384 7.89781C14.8471 10.4722 15.5204 11.3462 13.8392 13.9053C13.0359 15.1274 11.1329 16.2884 11.5479 17.8318C11.6684 18.2794 13.0684 20.1939 13.4471 20.7122C15.1837 23.0914 17.2876 25.1838 19.6554 26.9281C20.0035 27.1844 21.5488 28.0278 21.6234 28.1139L21.6254 28.1101Z" fill="#484846"/>
<path d="M12.0492 4.22663C12.1869 4.32226 12.5446 5.44495 12.4566 5.7261C11.9459 5.8332 12.1276 5.59222 11.9823 5.34932C11.8025 5.04904 11.0814 3.55722 12.0473 4.22663H12.0492Z" fill="#484846"/>
</g>
<defs>
<clipPath id="clip0_1_5960">
<rect width="43.2246" height="40.2543" fill="white" transform="translate(0 0.373047)"/>
</clipPath>
</defs>
</svg>
