<svg width="27" height="41" viewBox="0 0 27 41" fill="none" xmlns="http://www.w3.org/2000/svg">
<g clip-path="url(#clip0_1_5933)">
<path d="M15.3756 0.37207C20.3015 1.20336 24.8774 4.86926 26.3209 9.73155C26.5961 10.6602 26.6953 11.6225 26.9743 12.5418C26.9088 13.448 27.066 14.4609 26.9743 15.3502C26.744 17.6082 25.1189 22.4405 23.9899 24.4382C23.4451 25.4024 23.3215 24.8782 23.6005 24.0488C25.0028 19.8699 26.8489 17.2918 26.4107 12.452C25.5326 2.76109 14.1755 -2.41948 6.15091 3.02882C-5.75859 11.1152 4.14758 27.3346 10.1707 36.0051C10.5788 36.593 12.9903 40.1391 13.3891 40.0567L19.1126 32.577C19.1744 32.9084 19.0303 33.1162 18.8954 33.3877C18.4087 34.3706 14.2092 40.214 13.4977 40.5379C13.2318 40.6596 13.0558 40.682 12.8349 40.4517C9.01736 35.2468 5.22975 29.8416 2.61981 23.9028C-0.0200887 17.8928 -1.61713 11.5757 2.57862 5.8185C4.49208 3.18984 8.1842 0.763375 11.4476 0.37207H15.3756Z" fill="#484846"/>
<path d="M5.27438 12.9144H5.83418C5.65445 19.7463 14.0759 23.2512 18.9345 18.4451C23.9746 13.4611 20.0522 4.85993 13.0293 5.23438C11.9584 5.29055 11.0148 5.81291 9.95131 5.80168C9.80527 5.36918 10.7451 5.19132 11.0335 5.10707C17.8092 3.13931 23.7537 9.62298 21.0202 16.2265C17.6295 24.4177 5.14893 21.7796 5.27438 12.9144Z" fill="#484846"/>
<path d="M6.39608 9.17181C6.20323 10.2165 5.62283 11.0291 5.8344 12.1674H5.27459C5.07613 11.9765 5.50113 9.06509 6.39421 9.17181H6.39608Z" fill="#484846"/>
<path d="M23.2286 25.4618C23.3597 25.6097 22.6875 27.8751 22.109 27.3322C22.0266 27.2554 22.8972 25.0854 23.2286 25.4618Z" fill="#484846"/>
</g>
<defs>
<clipPath id="clip0_1_5933">
<rect width="27" height="40.2557" fill="white" transform="translate(0 0.37207)"/>
</clipPath>
</defs>
</svg>
