<svg width="62" height="60" viewBox="0 0 62 60" fill="none" xmlns="http://www.w3.org/2000/svg">
<g clip-path="url(#clip0_1_777)">
<path d="M13.2734 44.8975C13.2734 44.8975 19.6155 38.5555 19.6155 36.1793C19.6155 33.8032 19.8131 28.0541 19.9141 25.678C20.015 23.3018 20.2127 21.7163 22.0926 16.8588C23.9767 12.0056 26.9458 3.48506 26.9458 3.48506C26.9458 3.48506 27.7365 0.810299 29.2252 0.911234C31.0042 1.02899 31.1094 3.28739 29.8182 17.8514" stroke="#EFEFEF" stroke-width="0.841118" stroke-miterlimit="10"/>
<path d="M21.9917 53.7127C21.9917 53.7127 29.9192 49.8477 30.9076 42.122V18.9408C30.9076 18.9408 30.3146 17.553 28.4305 17.553C26.5464 17.553 26.3487 19.1385 26.3487 20.8207V31.6207" stroke="#EFEFEF" stroke-width="0.841118" stroke-miterlimit="10"/>
<path d="M61.1333 54.0575V57.4093C61.1333 58.0654 60.6034 58.5953 59.9473 58.5953H39.9581C39.5418 58.5953 39.1549 58.3766 38.9404 58.0191L37.6451 55.8617C37.2245 55.1593 37.624 54.2551 38.4315 54.0869C41.7665 53.4014 48.9118 51.0378 49.4544 43.371C49.5132 42.5425 50.3544 42.0126 51.1114 42.3449L60.4183 46.4075C60.8515 46.5967 61.1291 47.0215 61.1291 47.4967V47.9804" stroke="#EFEFEF" stroke-width="0.841118" stroke-miterlimit="10"/>
<path d="M42.6244 27.9784C42.5908 27.07 42.5613 26.271 42.5361 25.678C42.4352 23.3018 42.2375 21.7163 40.3576 16.8588C38.4735 12.0056 35.5043 3.48506 35.5043 3.48506C35.5043 3.48506 34.7137 0.810299 33.2249 0.911234C31.446 1.02899 31.3408 3.28739 32.6319 17.8514" stroke="#EFEFEF" stroke-width="0.841118" stroke-miterlimit="10"/>
<path d="M49.177 44.8976C49.177 44.8976 42.835 38.5556 42.835 36.1794" stroke="#EFEFEF" stroke-width="0.841118" stroke-miterlimit="10"/>
<path d="M40.4583 53.7127C40.4583 53.7127 32.5308 49.8477 31.5425 42.122V18.9408C31.5425 18.9408 32.1355 17.553 34.0196 17.553C35.9037 17.553 36.1013 19.1385 36.1013 20.8207C36.1013 22.503 36.1013 31.6207 36.1013 31.6207" stroke="#EFEFEF" stroke-width="0.841118" stroke-miterlimit="10"/>
<path d="M10.9855 58.5701H8.10889" stroke="#EFEFEF" stroke-width="0.841118" stroke-miterlimit="10"/>
<path d="M42.6074 28.7986V32.3902" stroke="#EFEFEF" stroke-width="0.841118" stroke-miterlimit="10"/>
<path d="M12.3189 58.5953H22.4922C22.9086 58.5953 23.2955 58.3766 23.51 58.0191L24.8053 55.8617C25.2259 55.1593 24.8263 54.2551 24.0189 54.0869C20.6838 53.4014 13.5385 51.0378 12.996 43.371C12.9371 42.5425 12.096 42.0126 11.339 42.3449L2.03203 46.4075C1.59886 46.5967 1.32129 47.0215 1.32129 47.4967V57.4135C1.32129 58.0696 1.85119 58.5995 2.50727 58.5995H4.00446" stroke="#EFEFEF" stroke-width="0.841118" stroke-miterlimit="10"/>
<path d="M61.1289 51.3742V48.813" stroke="#EFEFEF" stroke-width="0.841118" stroke-miterlimit="10"/>
</g>
<defs>
<clipPath id="clip0_1_777">
<rect width="60.6572" height="58.5292" fill="white" transform="translate(0.896484 0.486572)"/>
</clipPath>
</defs>
</svg>
