<svg width="66" height="60" viewBox="0 0 66 60" fill="none" xmlns="http://www.w3.org/2000/svg">
<g clip-path="url(#clip0_1_1058)">
<path d="M64.188 52.8994L64.6704 54.4883H7.05127V52.8994H64.188Z" fill="#EFEFEF" stroke="#EFEFEF" stroke-width="0.436288"/>
<path d="M33.207 56.5732L33.2002 58.1572H1.4375L1.75977 56.5732H33.207Z" fill="#EFEFEF" stroke="#EFEFEF" stroke-width="0.436288"/>
<path d="M64.5864 56.5732L64.5317 58.1572H59.5503V56.5732H64.5864Z" fill="#EFEFEF" stroke="#EFEFEF" stroke-width="0.436288"/>
<path d="M9.59092 35.4129C10.1406 35.0552 10.7645 34.8545 11.4277 34.8545C13.6615 34.8545 15.4721 37.1625 15.4721 40.0114C15.4721 42.8604 13.6615 45.1683 11.4277 45.1683C9.1939 45.1683 7.3833 42.8604 7.3833 40.0114C7.3833 39.3526 7.47928 38.72 7.65816 38.1397" stroke="#EFEFEF" stroke-width="0.872576" stroke-miterlimit="10"/>
<path d="M53.9269 58.6935H64.6858V52.5811H1.31494V58.6935H35.0095" stroke="#EFEFEF" stroke-width="0.872576" stroke-miterlimit="10"/>
<path d="M64.6814 54.7891H1.31494V56.3379H64.6814V54.7891Z" stroke="#EFEFEF" stroke-width="0.872576" stroke-miterlimit="10"/>
<path d="M21.1003 52.529H2.20898C2.20898 47.9436 3.82325 48.7246 6.09195 47.4245C7.45317 46.6435 8.97145 45.291 10.7384 45.291H12.5665C14.3334 45.291 15.699 46.8355 17.0602 47.6164C17.4049 47.8128 17.7321 47.9698 18.0419 48.1051C18.5698 48.3363 19.0497 48.5108 19.4598 48.7421C20.4066 49.27 21.0086 50.0858 21.0959 52.529H21.1003Z" stroke="#EFEFEF" stroke-width="0.872576" stroke-miterlimit="10"/>
<path d="M35.8469 43.4804C35.1052 44.5144 34.0407 45.1644 32.854 45.1644C30.6202 45.1644 28.8096 42.8565 28.8096 40.0075C28.8096 37.1585 30.6202 34.8506 32.854 34.8506C35.0878 34.8506 36.8984 37.1585 36.8984 40.0075" stroke="#EFEFEF" stroke-width="0.872576" stroke-miterlimit="10"/>
<path d="M42.5309 52.529H23.6396C23.6396 47.9436 25.2539 48.7246 27.5226 47.4245C28.8838 46.6435 30.4021 45.291 32.1691 45.291H33.9971C35.7641 45.291 37.1297 46.8355 38.4909 47.6164C40.7596 48.9166 42.3739 48.393 42.5266 52.5247L42.5309 52.529Z" stroke="#EFEFEF" stroke-width="0.872576" stroke-miterlimit="10"/>
<path d="M50.24 41.757C50.0873 41.2117 50 40.6227 50 40.0075C50 37.1585 51.8106 34.8506 54.0444 34.8506C56.2782 34.8506 58.0888 37.1585 58.0888 40.0075C58.0888 42.8565 56.2782 45.1644 54.0444 45.1644" stroke="#EFEFEF" stroke-width="0.872576" stroke-miterlimit="10"/>
<path d="M63.7214 52.529H44.8301C44.8301 47.9436 46.4443 48.7246 48.713 47.4245C50.0743 46.6435 51.5925 45.291 53.3595 45.291H55.1876C56.9545 45.291 58.3201 46.8355 59.6813 47.6164C61.95 48.9166 63.5643 48.393 63.717 52.5247L63.7214 52.529Z" stroke="#EFEFEF" stroke-width="0.872576" stroke-miterlimit="10"/>
<path d="M16.0353 25.8984H13.6313V27.648H16.0353V25.8984Z" fill="#EFEFEF"/>
<path d="M53.9487 25.8984H50.7114V27.648H53.9487V25.8984Z" fill="#EFEFEF"/>
<path d="M45.742 27.6475H41.1348L41.1915 25.9023H45.694L45.742 27.6475Z" fill="#EFEFEF"/>
<path d="M25.5071 27.6475H20.8999L20.961 25.9023H25.4591L25.5071 27.6475Z" fill="#EFEFEF"/>
<path d="M30.2886 22.0547V31.3913H15.5464" stroke="#EFEFEF" stroke-width="0.872576" stroke-miterlimit="10"/>
<path d="M36.2659 3.17641V0.436523H30.2888V5.81596H24.7959V11.4528H30.2888V12.9449" stroke="#EFEFEF" stroke-width="0.872576" stroke-miterlimit="10"/>
<path d="M41.6887 31.3907H36.2656V11.4523H41.7585V5.81548H36.2656V4.94727" stroke="#EFEFEF" stroke-width="0.872576" stroke-miterlimit="10"/>
<path d="M11.5283 25.0736V23.8477H15.9348V31.4303" stroke="#EFEFEF" stroke-width="0.872576" stroke-miterlimit="10"/>
<path d="M11.5283 31.4301V27.0498" stroke="#EFEFEF" stroke-width="0.872576" stroke-miterlimit="10"/>
<path d="M25.3237 30.2783V31.4301" stroke="#EFEFEF" stroke-width="0.872576" stroke-miterlimit="10"/>
<path d="M20.917 31.4303V23.8477H25.3235V28.3283" stroke="#EFEFEF" stroke-width="0.872576" stroke-miterlimit="10"/>
<path d="M43.8267 23.8477H45.694V31.4303" stroke="#EFEFEF" stroke-width="0.872576" stroke-miterlimit="10"/>
<path d="M41.2915 31.4303V23.8477H42.1248" stroke="#EFEFEF" stroke-width="0.872576" stroke-miterlimit="10"/>
<path d="M55.061 25.2783V26.1204V31.43" stroke="#EFEFEF" stroke-width="0.872576" stroke-miterlimit="10"/>
<path d="M50.6543 31.4303V23.8477H53.7956" stroke="#EFEFEF" stroke-width="0.872576" stroke-miterlimit="10"/>
<path d="M13.8451 22.347C11.0703 22.347 13.8451 17.1377 13.8451 17.1377C13.8451 17.1377 16.3886 22.347 13.8451 22.347Z" stroke="#EFEFEF" stroke-width="0.872576" stroke-miterlimit="10"/>
<path d="M23.0199 22.347C20.2451 22.347 23.0199 17.1377 23.0199 17.1377C23.0199 17.1377 25.5634 22.347 23.0199 22.347Z" stroke="#EFEFEF" stroke-width="0.872576" stroke-miterlimit="10"/>
<path d="M43.5125 22.347C40.7377 22.347 43.5125 17.1377 43.5125 17.1377C43.5125 17.1377 46.0561 22.347 43.5125 22.347Z" stroke="#EFEFEF" stroke-width="0.872576" stroke-miterlimit="10"/>
<path d="M52.6878 22.347C49.913 22.347 52.6878 17.1377 52.6878 17.1377C52.6878 17.1377 55.2314 22.347 52.6878 22.347Z" stroke="#EFEFEF" stroke-width="0.872576" stroke-miterlimit="10"/>
<path d="M13.8101 23.7125V22.3076" stroke="#EFEFEF" stroke-width="0.872576" stroke-miterlimit="10"/>
<path d="M23.0068 22.3076V23.7125" stroke="#EFEFEF" stroke-width="0.872576" stroke-miterlimit="10"/>
<path d="M43.4644 22.3076V24.2404" stroke="#EFEFEF" stroke-width="0.872576" stroke-miterlimit="10"/>
<path d="M52.6616 22.3076V23.7125" stroke="#EFEFEF" stroke-width="0.872576" stroke-miterlimit="10"/>
<path d="M54.1841 23.8516H55.4537" stroke="#EFEFEF" stroke-width="0.872576" stroke-miterlimit="10"/>
<path d="M45.3057 31.3906H58.7782" stroke="#EFEFEF" stroke-width="0.872576" stroke-miterlimit="10"/>
<path d="M7.35742 31.3906H11.9166" stroke="#EFEFEF" stroke-width="0.872576" stroke-miterlimit="10"/>
<path d="M30.2842 21.0117V21.7316" stroke="#EFEFEF" stroke-width="0.872576" stroke-miterlimit="10"/>
</g>
<defs>
<clipPath id="clip0_1_1058">
<rect width="64.2434" height="59.1301" fill="white" transform="translate(0.878418)"/>
</clipPath>
</defs>
</svg>
