<svg width="54" height="52" viewBox="0 0 54 52" fill="none" xmlns="http://www.w3.org/2000/svg">
<g clip-path="url(#clip0_1_1047)">
<path d="M11.2681 39.2736C11.2681 39.2736 16.8259 33.7158 16.8259 31.6334C16.8259 29.5511 16.9992 24.5129 17.0876 22.4305C17.1761 20.3481 17.3493 18.9587 18.9967 14.7018C20.6479 10.4487 23.2499 2.98165 23.2499 2.98165C23.2499 2.98165 23.9428 0.637621 25.2475 0.726075C26.8065 0.829271 26.8986 2.80843 25.7672 15.5716" stroke="#EFEFEF" stroke-width="0.737117" stroke-miterlimit="10"/>
<path d="M18.9082 46.9982C18.9082 46.9982 25.8555 43.6112 26.7216 36.8408V16.5258C26.7216 16.5258 26.202 15.3096 24.5508 15.3096C22.8997 15.3096 22.7265 16.699 22.7265 18.1733V27.6379" stroke="#EFEFEF" stroke-width="0.737117" stroke-miterlimit="10"/>
<path d="M53.2101 47.3007V50.2381C53.2101 50.813 52.7457 51.2774 52.1707 51.2774H34.6531C34.2883 51.2774 33.9492 51.0858 33.7612 50.7725L32.6261 48.8818C32.2575 48.2663 32.6076 47.4739 33.3153 47.3265C36.2379 46.7257 42.4997 44.6544 42.9752 37.9356C43.0268 37.2095 43.7639 36.7451 44.4273 37.0363L52.5835 40.5966C52.9631 40.7624 53.2064 41.1347 53.2064 41.5512V41.975" stroke="#EFEFEF" stroke-width="0.737117" stroke-miterlimit="10"/>
<path d="M36.9898 24.4465C36.9604 23.6504 36.9346 22.9502 36.9124 22.4305C36.824 20.3481 36.6508 18.9587 35.0033 14.7018C33.3522 10.4487 30.7501 2.98165 30.7501 2.98165C30.7501 2.98165 30.0573 0.637621 28.7526 0.726075C27.1936 0.829271 27.1014 2.80843 28.2329 15.5716" stroke="#EFEFEF" stroke-width="0.737117" stroke-miterlimit="10"/>
<path d="M42.7322 39.273C42.7322 39.273 37.1743 33.7152 37.1743 31.6328" stroke="#EFEFEF" stroke-width="0.737117" stroke-miterlimit="10"/>
<path d="M35.0918 46.9982C35.0918 46.9982 28.1444 43.6112 27.2783 36.8408V16.5258C27.2783 16.5258 27.798 15.3096 29.4491 15.3096C31.1003 15.3096 31.2735 16.699 31.2735 18.1733C31.2735 19.6475 31.2735 27.6379 31.2735 27.6379" stroke="#EFEFEF" stroke-width="0.737117" stroke-miterlimit="10"/>
<path d="M9.26313 51.2549H6.74219" stroke="#EFEFEF" stroke-width="0.737117" stroke-miterlimit="10"/>
<path d="M36.9751 25.165V28.3125" stroke="#EFEFEF" stroke-width="0.737117" stroke-miterlimit="10"/>
<path d="M10.4313 51.2774H19.3467C19.7116 51.2774 20.0506 51.0858 20.2386 50.7725L21.3738 48.8818C21.7423 48.2663 21.3922 47.4739 20.6846 47.3265C17.7619 46.7257 11.5001 44.6544 11.0246 37.9356C10.973 37.2095 10.2359 36.7451 9.57252 37.0363L1.41632 40.5966C1.03671 40.7624 0.793457 41.1347 0.793457 41.5512V50.2418C0.793457 50.8167 1.25784 51.2811 1.83279 51.2811H3.14486" stroke="#EFEFEF" stroke-width="0.737117" stroke-miterlimit="10"/>
<path d="M53.2065 44.9496V42.7051" stroke="#EFEFEF" stroke-width="0.737117" stroke-miterlimit="10"/>
</g>
<defs>
<clipPath id="clip0_1_1047">
<rect width="53.1572" height="51.2923" fill="white" transform="translate(0.421387 0.353516)"/>
</clipPath>
</defs>
</svg>
