<svg width="40" height="50" viewBox="0 0 40 50" fill="none" xmlns="http://www.w3.org/2000/svg">
<g clip-path="url(#clip0_1_1052)">
<path d="M19.3052 29.5117V36.3525H18.979V29.5117H19.3052Z" fill="#EFEFEF" stroke="#EFEFEF" stroke-width="0.293703"/>
<path d="M9.58936 32.9707V36.1045H9.2251V32.9707H9.58936Z" fill="#EFEFEF" stroke="#EFEFEF" stroke-width="0.293703"/>
<path d="M29.209 32.9707V36.1045H28.8652V32.9707H29.209Z" fill="#EFEFEF" stroke="#EFEFEF" stroke-width="0.293703"/>
<path d="M29.3559 32.6426H9.07861V33.4091H29.3559V32.6426Z" fill="#EFEFEF"/>
<path d="M20.7475 36.6691L22.3717 39.4827L20.7475 42.2964H17.4991L15.875 39.4827L17.4991 36.6691H20.7475ZM21.2262 35.8408H17.0204L14.9175 39.4827L17.0204 43.1247H21.2262L23.3291 39.4827L21.2262 35.8408Z" fill="#EFEFEF"/>
<path d="M30.6689 36.6691L32.2931 39.4827L30.6689 42.2964H27.4205L25.7963 39.4827L27.4205 36.6691H30.6689ZM31.1476 35.8408H26.9418L24.8389 39.4827L26.9418 43.1247H31.1476L33.2505 39.4827L31.1476 35.8408Z" fill="#EFEFEF"/>
<path d="M11.0199 36.6691L12.6441 39.4827L11.0199 42.2964H7.77159L6.14741 39.4827L7.77159 36.6691H11.0199ZM11.4987 35.8408H7.29286L5.18994 39.4827L7.29286 43.1247H11.4987L13.6016 39.4827L11.4987 35.8408Z" fill="#EFEFEF"/>
<path d="M23.0414 30.5517H15.3992L11.5781 23.9316L15.3992 17.3115H23.0414L26.8624 23.9316L23.0414 30.5517ZM16.3655 28.8776H22.078L24.9328 23.9316L22.078 18.9856H16.3655L13.5107 23.9316L16.3655 28.8776Z" fill="#EFEFEF"/>
<path d="M18.2452 13.8809H10.2213C10.0979 13.8809 10.001 13.7899 10.001 13.6812V10.9263C10.001 10.8147 10.1008 10.7266 10.2213 10.7266H26.4807C26.5159 10.7266 26.5512 10.7354 26.5805 10.7471L29.6585 12.1686C29.823 12.245 29.8201 12.4565 29.6527 12.527L26.5776 13.8604C26.5482 13.8721 26.5159 13.8809 26.4807 13.8809H25.3851" stroke="#EFEFEF" stroke-width="0.587406" stroke-miterlimit="10"/>
<path d="M32.3755 0.658203V8.49127C32.3755 8.73798 32.5752 8.93476 32.819 8.93476H39.254" stroke="#EFEFEF" stroke-width="0.587406" stroke-miterlimit="10"/>
<path d="M20.6479 0.552734H1.08726C0.90516 0.552734 0.755371 0.699586 0.755371 0.884619V31.4004" stroke="#EFEFEF" stroke-width="0.587406" stroke-miterlimit="10"/>
<path d="M0.757812 41.3099V48.5791C0.757812 48.7759 0.916412 48.9345 1.11319 48.9345H38.9216C39.1037 48.9345 39.2535 48.7905 39.2535 48.6055V8.79698C39.2535 8.72356 39.23 8.65013 39.183 8.59139L32.4689 0.679027C32.4073 0.599727 32.3103 0.552734 32.2076 0.552734H30.1839" stroke="#EFEFEF" stroke-width="0.587406" stroke-miterlimit="10"/>
<path d="M0.749512 32.3457V36.3401" stroke="#EFEFEF" stroke-width="0.587406" stroke-miterlimit="10"/>
<path d="M18.7031 13.8809H22.4684" stroke="#EFEFEF" stroke-width="0.587406" stroke-miterlimit="10"/>
<path d="M13.7018 10.873H13.0586V13.769H13.7018V10.873Z" fill="#EFEFEF"/>
<path d="M25.2588 0.549805H29.0593" stroke="#EFEFEF" stroke-width="0.587406" stroke-miterlimit="10"/>
</g>
<defs>
<clipPath id="clip0_1_1052">
<rect width="39.089" height="48.975" fill="white" transform="translate(0.455566 0.255859)"/>
</clipPath>
</defs>
</svg>
